<svg width="51" height="52" viewBox="0 0 51 52" fill="none" xmlns="http://www.w3.org/2000/svg">
<path d="M16.1001 6.8C16.1001 9.44 20.3301 11.6 25.5001 11.6C30.6701 11.6 34.9001 9.44 34.9001 6.8V4.4C34.9001 2.96 33.9601 2 32.5501 2H18.4501C17.0401 2 16.1001 2.96 16.1001 4.4V6.8Z" stroke="#28536B" stroke-width="2.91667" stroke-linecap="round" stroke-linejoin="round"/>
<path d="M16.1 6.7999C16.1 11.5999 25.5 18.7999 25.5 30.7999M25.5 30.7999V49.9999M25.5 30.7999C25.5 18.7999 34.9 11.5999 34.9 6.7999M11.4 42.7999H4.35C2.94 42.7999 2 41.8399 2 40.3999V13.9999C2 11.3599 3.88 8.4799 6.465 7.7599L16.1 4.3999" stroke="#28536B" stroke-width="2.91667" stroke-linecap="round" stroke-linejoin="round"/>
<path d="M39.5999 18.7998V47.5998C39.5999 49.0398 38.6599 49.9998 37.2499 49.9998H13.7499C12.3399 49.9998 11.3999 49.0398 11.3999 47.5998V18.7998" stroke="#28536B" stroke-width="2.91667" stroke-linecap="round" stroke-linejoin="round"/>
<path d="M34.8999 4.3999L44.5349 7.7599C47.1199 8.4799 48.9999 11.3599 48.9999 13.9999V40.3999C48.9999 41.8399 48.0599 42.7999 46.6499 42.7999H39.5999M11.3999 33.1999L16.0999 28.3999M39.5999 33.1999L34.8999 28.3999" stroke="#28536B" stroke-width="2.91667" stroke-linecap="round" stroke-linejoin="round"/>
</svg>
