<svg width="47" height="48" viewBox="0 0 47 48" fill="none" xmlns="http://www.w3.org/2000/svg">
<path d="M32.9085 34.2883H26.646V34.0311C26.646 33.2356 27.2002 32.5739 27.8954 32.5739H31.6592C32.3418 32.5739 32.9085 33.2202 32.9085 34.0311V34.2883ZM27.4288 20.573C27.2212 20.573 27.0221 20.6633 26.8753 20.8241C26.7285 20.9848 26.646 21.2029 26.646 21.4302V24.859C26.646 25.5411 26.8934 26.1952 27.3338 26.6774C27.7743 27.1597 28.3716 27.4306 28.9944 27.4306H32.1257C32.7486 27.4306 33.3459 27.1597 33.7863 26.6774C34.2268 26.1952 34.4742 25.5411 34.4742 24.859V21.4302C34.4742 21.2029 34.3917 20.9848 34.2449 20.8241C34.0981 20.6633 33.899 20.573 33.6914 20.573H27.4288ZM28.2116 24.859V22.2874H32.9085V24.859C32.9085 25.0864 32.8261 25.3044 32.6793 25.4652C32.5325 25.6259 32.3333 25.7162 32.1257 25.7162H28.9944C28.7868 25.7162 28.5877 25.6259 28.4409 25.4652C28.2941 25.3044 28.2116 25.0864 28.2116 24.859ZM20.3834 34.2883H14.1208V34.0311C14.1208 33.2356 14.6751 32.5739 15.3702 32.5739H19.1325C19.8167 32.5739 20.3834 33.2202 20.3834 34.0311V34.2883Z" fill="#28536B"/>
<path d="M28.9663 4.29294e-07H18.035C16.4107 -0.000546198 14.8219 0.520941 13.4657 1.49981C12.1095 2.47868 11.0455 3.87188 10.4056 5.50668L0.568666 26.227L0.565535 26.2339C-0.0497401 27.5347 -0.168278 29.0497 0.235964 30.4461C0.640206 31.8426 1.53416 33.0062 2.72142 33.6813H2.72455L6.30361 35.7197L6.30987 35.7231C7.30092 36.2837 8.39218 36.4517 9.42393 36.2717V42.5208C9.42393 45.629 11.738 48 14.4559 48H32.5438C35.2617 48 37.5773 45.629 37.5773 42.5208V36.2735C38.6418 36.4579 39.7324 36.2651 40.6898 35.7231L40.6976 35.7197L44.2751 33.683L44.2798 33.6813C45.4668 33.0059 46.3604 31.8421 46.7644 30.4457C47.1683 29.0493 47.0495 27.5345 46.4341 26.2339L46.431 26.227L36.5956 5.50668C35.9557 3.87188 34.8917 2.47868 33.5355 1.49981C32.1793 0.520941 30.5906 -0.000546198 28.9663 4.29294e-07ZM34.446 42.5208C34.4452 42.7925 34.3952 43.0614 34.299 43.3119C34.2027 43.5624 34.0621 43.7896 33.8852 43.9802C33.7084 44.1708 33.4988 44.3212 33.2685 44.4227C33.0383 44.5241 32.7919 44.5746 32.5438 44.5712H24.2975V22.049C24.3915 21.9884 24.4802 21.9159 24.5637 21.8313L32.3089 13.9844L32.312 13.981C32.6819 13.607 32.9097 13.0942 32.95 12.5446C32.9903 11.995 32.8403 11.449 32.5297 11.0151C33.419 10.5865 33.8699 9.46868 33.6726 8.49147L33.6569 8.42632L32.9446 5.47411C33.2838 5.91985 33.5552 6.41532 33.7587 6.9605L43.6536 27.8077C44.1389 28.8363 43.7788 30.105 42.8394 30.6365L39.2541 32.6766C38.7093 32.9852 38.094 32.9818 37.5757 32.7281C37.1841 32.5363 36.8642 32.2035 36.6692 31.7851L35.4715 29.4398C35.196 28.8998 34.446 29.1141 34.446 29.7313V42.5208ZM24.2975 19.7671V15.0611C24.3226 15.0143 24.3455 14.9662 24.3664 14.9171L28.8222 3.42882C30.0121 3.42882 31.0454 4.30316 31.3429 5.55468L32.1414 8.86349C32.204 9.17209 32.0005 9.48068 31.7187 9.48068H29.9495C29.5424 9.48068 29.3389 10.0121 29.6364 10.3207L31.249 12.018C31.4369 12.2066 31.4369 12.5323 31.249 12.7209L24.2975 19.7671ZM22.7319 15.1074V19.7894L15.7804 12.7209C15.7363 12.676 15.7012 12.6216 15.6771 12.5611C15.6531 12.5007 15.6407 12.4354 15.6407 12.3695C15.6407 12.3035 15.6531 12.2383 15.6771 12.1778C15.7012 12.1173 15.7363 12.0629 15.7804 12.018L17.393 10.3207C17.6749 10.0121 17.487 9.48068 17.0799 9.48068H15.3107C15.0289 9.48068 14.8097 9.17209 14.888 8.86349L15.6552 5.55468C15.9527 4.30316 16.986 3.42882 18.1759 3.42882L22.6348 14.9154C22.662 14.9851 22.6933 15.0491 22.7288 15.1074M22.7288 22.0679V44.5712H14.4528C14.205 44.5739 13.9592 44.5229 13.7295 44.4212C13.4998 44.3194 13.2907 44.1689 13.1143 43.9784C12.938 43.7878 12.7978 43.5609 12.7018 43.3107C12.6059 43.0606 12.556 42.7921 12.5552 42.5208V29.7313C12.5552 29.1141 11.8037 28.8998 11.5282 29.4398L10.332 31.7851C10.1285 32.2189 9.80282 32.5395 9.42393 32.7281C8.90727 32.9818 8.29198 32.9852 7.7487 32.6766L4.16338 30.6365C3.22399 30.105 2.8639 28.8363 3.34925 27.8077L13.2441 6.9605C13.4476 6.4136 13.7248 5.90957 14.0645 5.46382L13.3756 8.42975C13.2545 8.93716 13.302 9.47519 13.5096 9.94781C13.7172 10.4204 14.0715 10.7969 14.5091 11.0099C14.1969 11.4433 14.0452 11.9895 14.0843 12.5399C14.1235 13.0902 14.3507 13.6042 14.7205 13.9793L22.4375 21.8296C22.5294 21.9221 22.628 22.001 22.7335 22.0661" fill="#28536B"/>
</svg>
