<svg width="38" height="42" viewBox="0 0 38 42" fill="none" xmlns="http://www.w3.org/2000/svg">
<path d="M10.2164 0.5C10.1017 0.5 9.99573 0.5 9.88097 0.508757C8.39784 0.58407 6.72933 1.17782 5.20206 2.13061C2.74608 3.65614 0.750921 6.06703 0.381022 8.05581C-0.899056 14.9478 1.2038 20.859 4.33779 26.4462C8.48612 26.7439 12.3617 26.3411 16.0783 25.4654C15.7958 24.2043 15.5751 22.4966 15.7517 20.9553C15.84 20.1847 16.0165 19.4491 16.4138 18.8186C16.8022 18.1968 17.4732 17.6889 18.303 17.5925C18.815 17.5312 19.3006 17.6188 19.7508 17.7939C19.945 17.1109 20.1304 16.4103 20.2805 15.7272C20.5277 14.6063 20.7219 12.9949 20.5807 11.7426C20.51 11.1209 20.3511 10.5954 20.1481 10.2714C19.945 9.94739 19.7685 9.81603 19.4242 9.77225C18.9563 9.7197 18.4442 9.94739 17.8704 10.4728C17.3054 11.007 16.7316 11.7952 16.246 12.6271C15.2926 14.2735 14.6835 15.9899 14.6835 15.9899L13.1739 15.5521C13.1739 15.5521 13.9949 12.3206 14.2509 8.84397C14.3745 7.09513 14.3568 5.29288 14.0478 3.85055C13.7389 2.40822 13.165 1.40288 12.3087 0.961511C11.6907 0.647123 10.9845 0.500876 10.2164 0.5ZM27.7403 9.83355C26.9722 9.83355 26.2571 9.98242 25.6392 10.2977C24.774 10.7443 24.2002 11.7514 23.8912 13.1964C23.5822 14.6501 23.5646 16.4541 23.6882 18.2055C23.9442 21.7085 24.774 24.9487 24.774 24.9487L23.2556 25.3953C23.2556 25.3953 22.6464 23.6701 21.6842 22.015C21.1986 21.183 20.6248 20.3861 20.051 19.8519C19.4771 19.3265 18.9651 19.0988 18.4972 19.1513C18.1441 19.1951 17.9675 19.3265 17.7645 19.6505C17.5614 19.9745 17.4025 20.5 17.3319 21.1305C17.1907 22.3828 17.3849 24.0029 17.6321 25.1326C18.559 29.3098 20.5542 33.8198 20.9426 34.6781C24.9506 35.7202 29.1439 36.2193 33.6463 35.8953C36.7979 30.2819 38.899 24.3444 37.6189 17.4261C37.2482 15.4295 35.2442 13.0125 32.7811 11.4799C31.245 10.5166 29.5677 9.92112 28.0757 9.84231C27.961 9.83355 27.855 9.83355 27.7403 9.83355ZM16.4579 26.9979C15.9724 27.1117 15.4957 27.2081 15.0101 27.3131L15.7517 31.2539C16.3961 31.1489 17.0494 31.0262 17.6939 30.8949C17.2613 29.6864 16.8199 28.3465 16.4579 26.9979ZM13.4564 27.5934C12.6795 27.7247 11.8938 27.8298 11.0992 27.9086L11.7702 31.7794C12.5824 31.7006 13.3946 31.6042 14.1891 31.4904L13.4564 27.5934ZM4.48963 28.04L4.5223 32.1122C5.10142 32.1122 5.66995 32.1034 6.24378 32.0859L6.02308 28.1101C5.51105 28.0926 5.00343 28.075 4.48963 28.04ZM9.50136 28.04C8.88339 28.0838 8.24776 28.1013 7.60331 28.1188L7.82401 32.0333C8.62737 32.0071 9.40425 31.9633 10.19 31.9107L9.50136 28.04ZM20.9161 36.3069L19.9274 40.2127C20.6778 40.3703 21.4193 40.5104 22.1521 40.633L22.8848 36.7535C22.2227 36.6222 21.5694 36.4733 20.9161 36.3069ZM24.4385 37.0425L23.7146 40.8695C24.518 40.9833 25.3302 41.0796 26.1335 41.1585L26.7957 37.3578C26.0011 37.2702 25.2154 37.1651 24.4385 37.0425ZM28.3847 37.4979L27.7226 41.2898C28.4995 41.3511 29.2852 41.3949 30.0797 41.4212L30.2916 37.568C29.656 37.5592 29.0203 37.5329 28.3847 37.4979ZM33.4256 37.4979C32.9047 37.5329 32.3927 37.5592 31.8807 37.568L31.6688 41.4737C32.2338 41.4912 32.8076 41.5 33.3903 41.5L33.4256 37.4979Z" fill="#28536B"/>
</svg>
