<svg width="36" height="38" viewBox="0 0 36 38" fill="none" xmlns="http://www.w3.org/2000/svg">
<path fill-rule="evenodd" clip-rule="evenodd" d="M12.4065 1.02366C12.836 1.33923 13.0909 1.84834 13.0909 2.39079C13.0909 3.72813 13.6081 5.01069 14.5287 5.95633C15.4494 6.90197 16.698 7.43323 18 7.43323C19.302 7.43323 20.5506 6.90197 21.4713 5.95633C22.3919 5.01069 22.9091 3.72813 22.9091 2.39079C22.9091 1.84834 23.164 1.33923 23.5935 1.02366C24.0231 0.708093 24.5745 0.624859 25.0742 0.800149L31.7394 3.13788C34.3102 3.88946 36 6.62418 36 9.11404V29.2838C36 30.17 35.7053 31.0391 35.0707 31.6909C34.4362 32.3427 33.59 32.6454 32.7273 32.6454H27.8182C26.9144 32.6454 26.1818 31.8929 26.1818 30.9646C26.1818 30.0363 26.9144 29.2838 27.8182 29.2838H32.7273V9.11404C32.7273 7.9236 31.8227 6.6453 30.824 6.36552C30.7909 6.35626 30.7582 6.34594 30.7258 6.33457L25.8843 4.63648C25.5102 6.02208 24.7927 7.29872 23.7854 8.33336C22.251 9.90943 20.17 10.7949 18 10.7949C15.83 10.7949 13.749 9.90943 12.2146 8.33336C11.2073 7.29872 10.4898 6.02208 10.1157 4.63648L5.27424 6.33457C5.24182 6.34594 5.20906 6.35626 5.17601 6.36552C4.17727 6.6453 3.27273 7.9236 3.27273 9.11404V29.2838H8.18182C9.08556 29.2838 9.81818 30.0363 9.81818 30.9646C9.81818 31.8929 9.08556 32.6454 8.18182 32.6454H3.27273C2.40996 32.6454 1.56383 32.3427 0.92928 31.6909C0.294732 31.0391 0 30.17 0 29.2838V9.11404C0 6.62418 1.68983 3.88946 4.26062 3.13787L10.9258 0.800149C11.4255 0.624859 11.9769 0.708093 12.4065 1.02366Z" fill="#28536B"/>
<path fill-rule="evenodd" clip-rule="evenodd" d="M8.00472 10.5811C8.89805 10.5811 9.62223 11.3285 9.62223 12.2504V33.952H25.7973V12.2504C25.7973 11.3285 26.5215 10.5811 27.4149 10.5811C28.3082 10.5811 29.0324 11.3285 29.0324 12.2504V33.952C29.0324 34.8322 28.741 35.6954 28.1138 36.3427C27.4866 36.9901 26.6502 37.2907 25.7973 37.2907H9.62223C8.7694 37.2907 7.93302 36.9901 7.30578 36.3427C6.67854 35.6954 6.38721 34.8322 6.38721 33.952V12.2504C6.38721 11.3285 7.11139 10.5811 8.00472 10.5811Z" fill="#28536B"/>
<path fill-rule="evenodd" clip-rule="evenodd" d="M6.86097 14.5406C7.49264 13.9057 8.51679 13.9057 9.14847 14.5406L11.2397 16.6426L13.331 14.5406C13.9627 13.9057 14.9868 13.9057 15.6185 14.5406L17.7098 16.6426L19.8011 14.5406C20.4327 13.9057 21.4569 13.9057 22.0886 14.5406L24.1798 16.6426L26.2711 14.5406C26.9028 13.9057 27.9269 13.9057 28.5586 14.5406C29.1903 15.1756 29.1903 16.205 28.5586 16.8399L25.3236 20.0915C24.6919 20.7264 23.6678 20.7264 23.0361 20.0915L20.9448 17.9895L18.8535 20.0915C18.2219 20.7264 17.1977 20.7264 16.566 20.0915L14.4748 17.9895L12.3835 20.0915C11.7518 20.7264 10.7277 20.7264 10.096 20.0915L6.86097 16.8399C6.22929 16.205 6.22929 15.1756 6.86097 14.5406ZM6.86097 24.2955C7.49264 23.6606 8.51679 23.6606 9.14847 24.2955L11.2397 26.3975L13.331 24.2955C13.9627 23.6606 14.9868 23.6606 15.6185 24.2955L17.7098 26.3975L19.8011 24.2955C20.4327 23.6606 21.4569 23.6606 22.0886 24.2955L24.1798 26.3975L26.2711 24.2955C26.9028 23.6606 27.9269 23.6606 28.5586 24.2955C29.1903 24.9304 29.1903 25.9598 28.5586 26.5947L25.3236 29.8463C24.6919 30.4812 23.6678 30.4812 23.0361 29.8463L20.9448 27.7443L18.8535 29.8463C18.2219 30.4812 17.1977 30.4812 16.566 29.8463L14.4748 27.7443L12.3835 29.8463C11.7518 30.4812 10.7277 30.4812 10.096 29.8463L6.86097 26.5947C6.22929 25.9598 6.22929 24.9304 6.86097 24.2955Z" fill="#28536B"/>
</svg>
