<svg width="36" height="38" viewBox="0 0 36 38" fill="none" xmlns="http://www.w3.org/2000/svg">
<path fill-rule="evenodd" clip-rule="evenodd" d="M12.4065 1.02342C12.836 1.33899 13.0909 1.84809 13.0909 2.39054C13.0909 3.72788 13.6081 5.01045 14.5287 5.95609C15.4494 6.90173 16.698 7.43299 18 7.43299C19.302 7.43299 20.5506 6.90173 21.4713 5.95609C22.3919 5.01045 22.9091 3.72788 22.9091 2.39054C22.9091 1.84809 23.164 1.33899 23.5935 1.02342C24.0231 0.707849 24.5745 0.624615 25.0742 0.799905L31.7394 3.13763C34.3102 3.88922 36 6.62394 36 9.1138V29.2836C36 30.1698 35.7053 31.0389 35.0707 31.6907C34.4362 32.3425 33.59 32.6452 32.7273 32.6452H27.8182C26.9144 32.6452 26.1818 31.8927 26.1818 30.9644C26.1818 30.0361 26.9144 29.2836 27.8182 29.2836H32.7273V9.1138C32.7273 7.92335 31.8227 6.64505 30.824 6.36527C30.7909 6.35601 30.7582 6.34569 30.7258 6.33432L25.8843 4.63624C25.5102 6.02184 24.7927 7.29848 23.7854 8.33312C22.251 9.90919 20.17 10.7946 18 10.7946C15.83 10.7946 13.749 9.90919 12.2146 8.33312C11.2073 7.29848 10.4898 6.02184 10.1157 4.63624L5.27424 6.33432C5.24182 6.34569 5.20906 6.35601 5.17601 6.36527C4.17727 6.64505 3.27273 7.92335 3.27273 9.1138V29.2836H8.18182C9.08556 29.2836 9.81818 30.0361 9.81818 30.9644C9.81818 31.8927 9.08556 32.6452 8.18182 32.6452H3.27273C2.40996 32.6452 1.56383 32.3425 0.92928 31.6907C0.294732 31.0389 0 30.1698 0 29.2836V9.1138C0 6.62394 1.68983 3.88921 4.26062 3.13763L10.9258 0.799905C11.4255 0.624615 11.9769 0.707849 12.4065 1.02342Z" fill="#28536B"/>
<path fill-rule="evenodd" clip-rule="evenodd" d="M8.0046 10.5806C8.89792 10.5806 9.62211 11.328 9.62211 12.2499V33.9515H25.7972V12.2499C25.7972 11.328 26.5214 10.5806 27.4147 10.5806C28.3081 10.5806 29.0322 11.328 29.0322 12.2499V33.9515C29.0322 34.8317 28.7409 35.6949 28.1137 36.3422C27.4864 36.9896 26.6501 37.2902 25.7972 37.2902H9.62211C8.76928 37.2902 7.9329 36.9896 7.30566 36.3422C6.67842 35.6949 6.38708 34.8317 6.38708 33.9515V12.2499C6.38708 11.328 7.11127 10.5806 8.0046 10.5806Z" fill="#28536B"/>
<path fill-rule="evenodd" clip-rule="evenodd" d="M6.86084 14.5406C7.49252 13.9057 8.51667 13.9057 9.14835 14.5406L11.2396 16.6426L13.3309 14.5406C13.9626 13.9057 14.9867 13.9057 15.6184 14.5406L17.7097 16.6426L19.8009 14.5406C20.4326 13.9057 21.4568 13.9057 22.0884 14.5406L24.1797 16.6426L26.271 14.5406C26.9027 13.9057 27.9268 13.9057 28.5585 14.5406C29.1902 15.1756 29.1902 16.205 28.5585 16.8399L25.3235 20.0915C24.6918 20.7264 23.6676 20.7264 23.036 20.0915L20.9447 17.9895L18.8534 20.0915C18.2217 20.7264 17.1976 20.7264 16.5659 20.0915L14.4746 17.9895L12.3834 20.0915C11.7517 20.7264 10.7275 20.7264 10.0959 20.0915L6.86084 16.8399C6.22917 16.205 6.22917 15.1756 6.86084 14.5406ZM6.86084 24.2955C7.49252 23.6606 8.51667 23.6606 9.14835 24.2955L11.2396 26.3975L13.3309 24.2955C13.9626 23.6606 14.9867 23.6606 15.6184 24.2955L17.7097 26.3975L19.8009 24.2955C20.4326 23.6606 21.4568 23.6606 22.0884 24.2955L24.1797 26.3975L26.271 24.2955C26.9027 23.6606 27.9268 23.6606 28.5585 24.2955C29.1902 24.9304 29.1902 25.9598 28.5585 26.5947L25.3235 29.8463C24.6918 30.4812 23.6676 30.4812 23.036 29.8463L20.9447 27.7443L18.8534 29.8463C18.2217 30.4812 17.1976 30.4812 16.5659 29.8463L14.4746 27.7443L12.3834 29.8463C11.7517 30.4812 10.7275 30.4812 10.0959 29.8463L6.86084 26.5947C6.22917 25.9598 6.22917 24.9304 6.86084 24.2955Z" fill="#28536B"/>
</svg>
