<svg width="174" height="31" viewBox="0 0 174 31" fill="none" xmlns="http://www.w3.org/2000/svg">
<path d="M29.7716 6.84229C20.0369 10.4976 10.549 18.4977 7.02197 22.0408C11.947 19.078 20.5852 15.1309 24.2886 13.5277C22.9804 16.6443 21.9479 21.9446 21.5952 24.2051C24.3271 20.973 34.1484 17.2792 38.7175 15.8363C35.5239 15.2207 29.2746 16.6379 26.5491 17.4235C26.7415 15.3842 28.7776 9.51965 29.7716 6.84229Z" fill="#28536B"/>
<ellipse cx="33.427" cy="2.99467" rx="2.83769" ry="2.88579" fill="#28536B"/>
<path fill-rule="evenodd" clip-rule="evenodd" d="M37.3229 30.8905C42.7949 30.8905 47.2308 26.3899 47.2308 20.8383C47.2308 15.2866 42.7949 10.7861 37.3229 10.7861C31.8509 10.7861 27.415 15.2866 27.415 20.8383C27.415 26.3899 31.8509 30.8905 37.3229 30.8905ZM37.3707 27.8125C41.1692 27.8125 44.2485 24.6902 44.2485 20.8385C44.2485 16.9869 41.1692 13.8645 37.3707 13.8645C33.5722 13.8645 30.4929 16.9869 30.4929 20.8385C30.4929 24.6902 33.5722 27.8125 37.3707 27.8125Z" fill="#28536B"/>
<path fill-rule="evenodd" clip-rule="evenodd" d="M9.90787 30.8905C15.3798 30.8905 19.8157 26.3899 19.8157 20.8383C19.8157 15.2866 15.3798 10.7861 9.90787 10.7861C4.4359 10.7861 0 15.2866 0 20.8383C0 26.3899 4.4359 30.8905 9.90787 30.8905ZM9.95582 27.8125C13.7543 27.8125 16.8336 24.6902 16.8336 20.8385C16.8336 16.9869 13.7543 13.8645 9.95582 13.8645C6.15732 13.8645 3.07802 16.9869 3.07802 20.8385C3.07802 24.6902 6.15732 27.8125 9.95582 27.8125Z" fill="#28536B"/>
<path d="M55.6504 19.064C55.8744 19.4693 56.125 19.8213 56.4024 20.12C56.6904 20.4187 56.9997 20.648 57.3304 20.808C57.6717 20.968 58.029 21.048 58.4024 21.048C58.797 21.048 59.1224 20.952 59.3784 20.76C59.6344 20.5573 59.7624 20.2853 59.7624 19.944C59.7624 19.656 59.6877 19.4267 59.5384 19.256C59.389 19.0747 59.149 18.904 58.8184 18.744C58.4877 18.584 58.0504 18.4027 57.5064 18.2C57.2397 18.104 56.9304 17.9707 56.5784 17.8C56.237 17.6293 55.9117 17.4107 55.6024 17.144C55.293 16.8667 55.037 16.536 54.8344 16.152C54.6317 15.7573 54.5304 15.2827 54.5304 14.728C54.5304 14.0667 54.701 13.496 55.0424 13.016C55.3944 12.536 55.8637 12.1733 56.4504 11.928C57.0477 11.672 57.709 11.544 58.4344 11.544C59.181 11.544 59.8264 11.6667 60.3704 11.912C60.925 12.1573 61.3837 12.4667 61.7464 12.84C62.109 13.2133 62.3864 13.592 62.5784 13.976L60.5144 15.128C60.3544 14.8613 60.1677 14.632 59.9544 14.44C59.7517 14.2373 59.5224 14.0827 59.2664 13.976C59.021 13.8587 58.7544 13.8 58.4664 13.8C58.0824 13.8 57.789 13.8853 57.5864 14.056C57.3837 14.216 57.2824 14.4187 57.2824 14.664C57.2824 14.92 57.3784 15.144 57.5704 15.336C57.773 15.528 58.0557 15.704 58.4184 15.864C58.7917 16.024 59.2397 16.1947 59.7624 16.376C60.157 16.5253 60.525 16.7013 60.8664 16.904C61.2077 17.096 61.5064 17.3307 61.7624 17.608C62.029 17.8853 62.237 18.2053 62.3864 18.568C62.5357 18.9307 62.6104 19.3467 62.6104 19.816C62.6104 20.3813 62.493 20.888 62.2584 21.336C62.0344 21.7733 61.725 22.1413 61.3304 22.44C60.9464 22.7387 60.5037 22.9627 60.0024 23.112C59.5117 23.272 59.005 23.352 58.4824 23.352C57.757 23.352 57.0797 23.224 56.4504 22.968C55.8317 22.7013 55.293 22.344 54.8344 21.896C54.3757 21.448 54.0184 20.9573 53.7624 20.424L55.6504 19.064ZM64.4184 11.8H67.1224V23H64.4184V11.8ZM66.1144 14.024V11.8H68.3064C69.2557 11.8 70.0504 11.9493 70.6904 12.248C71.341 12.536 71.8317 12.952 72.1624 13.496C72.493 14.04 72.6584 14.696 72.6584 15.464C72.6584 16.2107 72.493 16.8613 72.1624 17.416C71.8317 17.96 71.341 18.3813 70.6904 18.68C70.0504 18.968 69.2557 19.112 68.3064 19.112H66.1144V16.888H68.3064C68.8504 16.888 69.277 16.7653 69.5864 16.52C69.8957 16.2747 70.0504 15.9227 70.0504 15.464C70.0504 14.9947 69.8957 14.6373 69.5864 14.392C69.277 14.1467 68.8504 14.024 68.3064 14.024H66.1144ZM74.3871 11.8H77.1391V23H74.3871V11.8ZM87.2401 11.8H89.8481V23.56L82.1041 16.696V23H79.5121V11.24L87.2401 18.104V11.8Z" fill="#28536B"/>
<path d="M92.4233 11.8H92.9513V23H92.4233V11.8ZM95.2233 23H92.6953V22.472H95.2233C95.9699 22.472 96.6473 22.3547 97.2553 22.12C97.8633 21.8853 98.3753 21.544 98.7913 21.096C99.2179 20.648 99.5433 20.1147 99.7673 19.496C100.002 18.8667 100.119 18.168 100.119 17.4C100.119 16.632 100.002 15.9387 99.7673 15.32C99.5433 14.6907 99.2179 14.152 98.7913 13.704C98.3753 13.256 97.8633 12.9147 97.2553 12.68C96.6473 12.4453 95.9699 12.328 95.2233 12.328H92.6953V11.8H95.2233C96.3113 11.8 97.2606 12.0347 98.0713 12.504C98.8926 12.9733 99.5273 13.6293 99.9753 14.472C100.423 15.304 100.647 16.28 100.647 17.4C100.647 18.52 100.423 19.5013 99.9753 20.344C99.5273 21.176 98.8926 21.8267 98.0713 22.296C97.2606 22.7653 96.3113 23 95.2233 23ZM104.622 17.8H105.198L108.878 23H108.238L104.622 17.8ZM102.798 11.8H103.326V23H102.798V11.8ZM103.038 12.28V11.8H104.99C105.716 11.8 106.361 11.9227 106.926 12.168C107.492 12.4027 107.94 12.7547 108.27 13.224C108.612 13.6933 108.782 14.2747 108.782 14.968C108.782 15.6507 108.612 16.232 108.27 16.712C107.94 17.1813 107.492 17.5387 106.926 17.784C106.361 18.0187 105.716 18.136 104.99 18.136H103.038V17.672H104.99C105.63 17.672 106.196 17.5707 106.686 17.368C107.177 17.1653 107.561 16.8667 107.838 16.472C108.116 16.0667 108.254 15.5653 108.254 14.968C108.254 14.3707 108.116 13.8747 107.838 13.48C107.561 13.0747 107.177 12.776 106.686 12.584C106.196 12.3813 105.63 12.28 104.99 12.28H103.038ZM110.672 11.8H111.184V23H110.672V11.8ZM117.46 22.088L121.604 11.8H122.212L117.46 23.336L112.708 11.8H113.3L117.46 22.088ZM124.038 23V22.504H129.526V23H124.038ZM124.038 12.296V11.8H129.526V12.296H124.038ZM124.038 17.064V16.568H129.206V17.064H124.038ZM123.798 11.8H124.326V23H123.798V11.8Z" fill="black"/>
</svg>
