<svg width="173" height="31" viewBox="0 0 173 31" fill="none" xmlns="http://www.w3.org/2000/svg">
<path d="M29.7717 6.84253C20.037 10.4979 10.5492 18.4979 7.02209 22.041C11.9472 19.0783 20.5853 15.1312 24.2887 13.5279C22.9805 16.6446 21.948 21.9448 21.5953 24.2053C24.3272 20.9733 34.1485 17.2795 38.7177 15.8366C35.5241 15.2209 29.2747 16.6382 26.5493 17.4237C26.7416 15.3845 28.7777 9.5199 29.7717 6.84253Z" fill="#28536B"/>
<ellipse cx="33.4269" cy="2.99492" rx="2.83769" ry="2.88579" fill="#28536B"/>
<path fill-rule="evenodd" clip-rule="evenodd" d="M37.3229 30.8909C42.7949 30.8909 47.2308 26.3904 47.2308 20.8388C47.2308 15.2871 42.7949 10.7866 37.3229 10.7866C31.8509 10.7866 27.415 15.2871 27.415 20.8388C27.415 26.3904 31.8509 30.8909 37.3229 30.8909ZM37.3707 27.813C41.1692 27.813 44.2485 24.6906 44.2485 20.839C44.2485 16.9874 41.1692 13.865 37.3707 13.865C33.5722 13.865 30.4929 16.9874 30.4929 20.839C30.4929 24.6906 33.5722 27.813 37.3707 27.813Z" fill="#28536B"/>
<path fill-rule="evenodd" clip-rule="evenodd" d="M9.90787 30.8909C15.3798 30.8909 19.8157 26.3904 19.8157 20.8388C19.8157 15.2871 15.3798 10.7866 9.90787 10.7866C4.4359 10.7866 0 15.2871 0 20.8388C0 26.3904 4.4359 30.8909 9.90787 30.8909ZM9.95582 27.813C13.7543 27.813 16.8336 24.6906 16.8336 20.839C16.8336 16.9874 13.7543 13.865 9.95582 13.865C6.15732 13.865 3.07802 16.9874 3.07802 20.839C3.07802 24.6906 6.15732 27.813 9.95582 27.813Z" fill="#28536B"/>
<path d="M54.9238 19.064C55.1478 19.4693 55.3985 19.8213 55.6758 20.12C55.9638 20.4187 56.2731 20.648 56.6038 20.808C56.9451 20.968 57.3025 21.048 57.6758 21.048C58.0705 21.048 58.3958 20.952 58.6518 20.76C58.9078 20.5573 59.0358 20.2853 59.0358 19.944C59.0358 19.656 58.9611 19.4267 58.8118 19.256C58.6625 19.0747 58.4225 18.904 58.0918 18.744C57.7611 18.584 57.3238 18.4027 56.7798 18.2C56.5131 18.104 56.2038 17.9707 55.8518 17.8C55.5105 17.6293 55.1851 17.4107 54.8758 17.144C54.5665 16.8667 54.3105 16.536 54.1078 16.152C53.9051 15.7573 53.8038 15.2827 53.8038 14.728C53.8038 14.0667 53.9745 13.496 54.3158 13.016C54.6678 12.536 55.1371 12.1733 55.7238 11.928C56.3211 11.672 56.9825 11.544 57.7078 11.544C58.4545 11.544 59.0998 11.6667 59.6438 11.912C60.1985 12.1573 60.6571 12.4667 61.0198 12.84C61.3825 13.2133 61.6598 13.592 61.8518 13.976L59.7878 15.128C59.6278 14.8613 59.4411 14.632 59.2278 14.44C59.0251 14.2373 58.7958 14.0827 58.5398 13.976C58.2945 13.8587 58.0278 13.8 57.7398 13.8C57.3558 13.8 57.0625 13.8853 56.8598 14.056C56.6571 14.216 56.5558 14.4187 56.5558 14.664C56.5558 14.92 56.6518 15.144 56.8438 15.336C57.0465 15.528 57.3291 15.704 57.6918 15.864C58.0651 16.024 58.5131 16.1947 59.0358 16.376C59.4305 16.5253 59.7985 16.7013 60.1398 16.904C60.4811 17.096 60.7798 17.3307 61.0358 17.608C61.3025 17.8853 61.5105 18.2053 61.6598 18.568C61.8091 18.9307 61.8838 19.3467 61.8838 19.816C61.8838 20.3813 61.7665 20.888 61.5318 21.336C61.3078 21.7733 60.9985 22.1413 60.6038 22.44C60.2198 22.7387 59.7771 22.9627 59.2758 23.112C58.7851 23.272 58.2785 23.352 57.7558 23.352C57.0305 23.352 56.3531 23.224 55.7238 22.968C55.1051 22.7013 54.5665 22.344 54.1078 21.896C53.6491 21.448 53.2918 20.9573 53.0358 20.424L54.9238 19.064ZM63.6918 11.8H66.3958V23H63.6918V11.8ZM65.3878 14.024V11.8H67.5798C68.5291 11.8 69.3238 11.9493 69.9638 12.248C70.6145 12.536 71.1051 12.952 71.4358 13.496C71.7665 14.04 71.9318 14.696 71.9318 15.464C71.9318 16.2107 71.7665 16.8613 71.4358 17.416C71.1051 17.96 70.6145 18.3813 69.9638 18.68C69.3238 18.968 68.5291 19.112 67.5798 19.112H65.3878V16.888H67.5798C68.1238 16.888 68.5505 16.7653 68.8598 16.52C69.1691 16.2747 69.3238 15.9227 69.3238 15.464C69.3238 14.9947 69.1691 14.6373 68.8598 14.392C68.5505 14.1467 68.1238 14.024 67.5798 14.024H65.3878ZM73.6606 11.8H76.4126V23H73.6606V11.8ZM86.5136 11.8H89.1216V23.56L81.3776 16.696V23H78.7856V11.24L86.5136 18.104V11.8Z" fill="#28536B"/>
<path d="M91.6487 11.8H92.5287V23H91.6487V11.8ZM94.6887 23H92.1287V22.12H94.6887C95.382 22.12 96.0114 22.008 96.5767 21.784C97.1527 21.56 97.6434 21.2453 98.0487 20.84C98.454 20.424 98.7634 19.928 98.9767 19.352C99.2007 18.7653 99.3127 18.1147 99.3127 17.4C99.3127 16.6853 99.2007 16.04 98.9767 15.464C98.7634 14.8773 98.454 14.3813 98.0487 13.976C97.6434 13.56 97.1527 13.24 96.5767 13.016C96.0114 12.792 95.382 12.68 94.6887 12.68H92.1287V11.8H94.6887C95.7767 11.8 96.7314 12.0347 97.5527 12.504C98.3847 12.9733 99.03 13.6293 99.4887 14.472C99.958 15.304 100.193 16.28 100.193 17.4C100.193 18.52 99.958 19.5013 99.4887 20.344C99.03 21.176 98.3847 21.8267 97.5527 22.296C96.7314 22.7653 95.7767 23 94.6887 23ZM104.146 17.656H105.122L108.946 23H107.858L104.146 17.656ZM102.242 11.8H103.122V23H102.242V11.8ZM102.706 12.584V11.8H104.802C105.528 11.8 106.173 11.928 106.738 12.184C107.314 12.44 107.768 12.808 108.098 13.288C108.429 13.768 108.594 14.3547 108.594 15.048C108.594 15.7307 108.429 16.3173 108.098 16.808C107.768 17.2987 107.314 17.672 106.738 17.928C106.173 18.1733 105.528 18.296 104.802 18.296H102.706V17.512H104.802C105.368 17.512 105.869 17.4213 106.306 17.24C106.754 17.048 107.101 16.7707 107.346 16.408C107.592 16.0347 107.714 15.5813 107.714 15.048C107.714 14.5147 107.586 14.0667 107.33 13.704C107.085 13.3413 106.744 13.064 106.306 12.872C105.869 12.68 105.368 12.584 104.802 12.584H102.706ZM110.585 11.8H111.465V23H110.585V11.8ZM117.861 21.384L121.813 11.8H122.805L117.861 23.432L112.917 11.8H113.909L117.861 21.384ZM124.753 23V22.168H130.305V23H124.753ZM124.753 12.632V11.8H130.305V12.632H124.753ZM124.753 17.272V16.44H129.985V17.272H124.753ZM124.289 11.8H125.169V23H124.289V11.8Z" fill="black"/>
</svg>
