<svg width="35" height="45" viewBox="0 0 35 45" fill="none" xmlns="http://www.w3.org/2000/svg">
<path d="M34.9771 41.1058L30.9669 3.02885C30.8781 2.19214 30.535 1.42269 30.002 0.864992C29.469 0.307294 28.7829 -0.000289268 28.0723 2.04134e-07H6.92769C6.21715 -0.000289268 5.53096 0.307294 4.99798 0.864992C4.465 1.42269 4.12188 2.19214 4.03306 3.02885L0.0228752 41.1058C-0.0288579 41.5931 0.00739318 42.088 0.12922 42.5574C0.251046 43.0269 0.455657 43.4602 0.729456 43.8285C1.00325 44.1969 1.33997 44.4918 1.71723 44.6938C2.09448 44.8958 2.50364 45.0002 2.9175 45H10.3345C10.9831 45.0001 11.6132 44.7437 12.1253 44.2711C12.6373 43.7986 13.002 43.137 13.1617 42.3909L17.5 22.487L21.8365 42.3779C21.9942 43.1268 22.3583 43.7916 22.8709 44.2667C23.3834 44.7418 24.0151 44.9999 24.6655 45H32.0825C32.4964 45.0002 32.9055 44.8958 33.2828 44.6938C33.66 44.4918 33.9967 44.1969 34.2705 43.8285C34.5443 43.4602 34.749 43.0269 34.8708 42.5574C34.9926 42.088 35.0289 41.5931 34.9771 41.1058ZM29.3301 15.4038C28.2868 15.1196 27.3291 14.5015 26.561 13.6166C25.7929 12.7317 25.2439 11.6139 24.9735 10.3846H28.8014L29.3301 15.4038ZM28.0723 3.46154L28.4369 6.92308H6.56313L6.92769 3.46154H28.0723ZM6.19856 10.3846H10.0265C9.7561 11.6139 9.20705 12.7317 8.43899 13.6166C7.67093 14.5015 6.71323 15.1196 5.66995 15.4038L6.19856 10.3846ZM10.3345 41.5385H2.9175L5.28716 18.98C7.18648 18.7407 8.96793 17.7715 10.3604 16.2199C11.7529 14.6683 12.6803 12.6193 13.0013 10.3846H16.0418V15.3606L10.3345 41.5385ZM24.6618 41.5255L18.9583 15.3606V10.3846H21.9987C22.3197 12.6193 23.2471 14.6683 24.6396 16.2199C26.0321 17.7715 27.8135 18.7407 29.7128 18.98L32.0825 41.5385L24.6618 41.5255Z" fill="#28536B"/>
</svg>
