<svg width="20" height="28" viewBox="0 0 20 28" fill="none" xmlns="http://www.w3.org/2000/svg">
<path d="M16.3475 21.9899V12.4152C16.3475 11.539 15.6327 10.822 14.7591 10.822C13.8854 10.822 13.1706 11.539 13.1706 12.4152V21.9899H10.3273C9.61253 21.9899 9.26307 22.8502 9.77137 23.3441L14.2031 27.773C14.5208 28.0757 15.0132 28.0757 15.3309 27.773L19.7627 23.3441C20.271 22.8502 19.9057 21.9899 19.2067 21.9899H16.3475ZM4.67246 0.227704L0.240704 4.67255C-0.267598 5.16642 0.0818595 6.02671 0.79666 6.02671H3.63998V15.6014C3.63998 16.4777 4.35478 17.1946 5.22842 17.1946C6.10207 17.1946 6.81687 16.4777 6.81687 15.6014V6.02671H9.66018C10.375 6.02671 10.7244 5.16642 10.2161 4.67255L5.78438 0.227704C5.63591 0.0817519 5.43631 0 5.22842 0C5.02053 0 4.82093 0.0817519 4.67246 0.227704Z" fill="#28536B"/>
</svg>
