<svg width="34" height="46" viewBox="0 0 34 46" fill="none" xmlns="http://www.w3.org/2000/svg">
<path d="M0.540027 0.5V4.98666L17.02 7.88957L33.5 4.98666V0.5L17.02 3.40311L0.540027 0.5ZM0.5 7.47542V26.23C5.38994 27.8376 9.41323 27.1059 14.3037 26.23C14.4163 22.7903 15.581 20.1394 16.981 20.1357C18.3809 20.1397 19.5456 22.7903 19.6583 26.23C24.5476 27.8375 28.5701 27.1059 33.46 26.23V7.47542L16.981 10.3696L0.5 7.47542ZM0.5 28.7952V35.7448C5.0377 36.4812 8.97442 37.1406 13.5108 35.7448V28.7952C8.97304 29.5315 5.03642 30.191 0.5 28.7952ZM20.4492 28.7952V35.7448C24.9869 36.4812 28.9237 37.1406 33.4601 35.7448V28.7952C28.9223 29.5315 24.9857 30.191 20.4492 28.7952ZM0.837309 38.2925V44.7412C5.1396 45.4244 8.87243 46.0362 13.1736 44.7412V38.2925C8.87114 38.9755 5.13851 39.5875 0.837309 38.2925ZM20.7866 38.2925V44.7412C25.089 45.4244 28.8216 46.0362 33.1229 44.7412V38.2925C28.8204 38.9755 25.0879 39.5875 20.7866 38.2925Z" fill="#28536B"/>
</svg>
