<svg width="48" height="48" viewBox="0 0 48 48" fill="none" xmlns="http://www.w3.org/2000/svg">
<path d="M24.0015 0C26.1609 0 28.1166 0.358926 29.4611 0.894773C30.1333 1.1632 30.6426 1.47739 30.9482 1.76514C31.2538 2.05289 31.3353 2.2654 31.3353 2.44029C31.3353 2.61518 31.2538 2.82769 30.9482 3.11544C30.6426 3.40319 30.1333 3.71738 29.4611 3.98581C28.1166 4.52165 26.1609 4.88058 24.0015 4.88058C21.8422 4.88058 19.8865 4.52165 18.542 3.98581C17.8697 3.71738 17.3604 3.40319 17.0549 3.11544C16.7493 2.82769 16.6678 2.61518 16.6678 2.44029C16.6678 2.2654 16.7493 2.05289 17.0549 1.76514C17.3604 1.47739 17.8697 1.1632 18.542 0.894773C19.8865 0.358926 21.8422 0 24.0015 0ZM31.3353 4.85923V7.32087C31.3353 7.70522 31.2028 8.01229 30.8667 8.35799C30.5306 8.69353 29.9907 9.03924 29.2981 9.31377C28.1166 9.7815 26.497 10.0764 24.8164 10.1475V6.49219C26.8332 6.41695 28.6462 6.0631 30.062 5.49574C30.5306 5.30865 30.9584 5.09919 31.3353 4.85923ZM16.6678 4.85923C17.0447 5.09919 17.4725 5.30865 17.941 5.49574C19.3568 6.0631 21.1699 6.41695 23.1867 6.49219V10.1475C21.506 10.0764 19.8865 9.7815 18.7049 9.31377C18.0123 9.03924 17.4725 8.69353 17.1363 8.35799C16.8002 8.01229 16.6678 7.70522 16.6678 7.32087V4.85923ZM32.965 5.75095C33.7289 5.90347 34.4826 6.07734 35.1956 6.2746C36.968 6.76774 38.5264 7.41136 39.5653 8.15464C40.3904 8.75454 40.8691 9.35445 41.0321 10.0357C33.0566 12.9234 28.7684 14.4384 24.8164 14.6214V11.7744C26.6498 11.7134 28.4425 11.4084 29.9092 10.8186C30.7445 10.4831 31.4779 10.0662 32.0381 9.48663C32.5881 8.91723 32.965 8.15464 32.965 7.32087V5.75095ZM15.0381 5.75095V7.32087C15.0381 8.15464 15.415 8.91723 15.965 9.48663C16.5252 10.0662 17.2586 10.4831 18.0938 10.8186C19.5605 11.4084 21.3532 11.7134 23.1867 11.7744V14.6214C19.2346 14.4384 14.9464 12.9234 6.95775 10.0357C7.12072 9.36461 7.60964 8.75454 8.43774 8.15464C9.47668 7.41136 11.0351 6.76774 12.8074 6.2746C13.5204 6.07734 14.2742 5.90347 15.0381 5.75095ZM41.5006 11.5914C42.5395 13.808 42.7025 15.0891 42.7229 16.2991C39.82 16.472 38.0069 17.5193 35.0429 18.9936L34.4113 19.3088V19.319C29.8074 20.3256 27.1897 20.8746 24.8164 20.9662V16.2483C29.0944 16.0754 33.5659 14.4791 41.5006 11.5914ZM6.48921 11.5914C14.4371 14.4791 18.9087 16.0754 23.1867 16.2483V20.956C20.8134 20.8441 18.1957 20.2849 13.5917 19.3088L12.9602 18.9936C9.99615 17.5193 8.18309 16.472 5.26692 16.2991C5.29748 15.0891 5.46045 13.808 6.48921 11.5914ZM43.0081 17.9056C43.4053 18.8716 43.7618 19.6037 43.8433 21.8406C43.1609 22.1863 42.2238 22.5523 41.1237 22.9082C39.9727 23.2743 38.6282 23.6301 37.1717 23.9759C36.9578 22.5117 36.6929 21.2102 36.3874 20.1426C39.0255 18.8106 40.482 18.0073 43.0081 17.9056ZM4.99191 17.9056C7.50778 18.0073 8.97758 18.8106 11.6157 20.1426C11.3101 21.2102 11.0453 22.5117 10.8314 23.9759C9.37482 23.6301 8.02725 23.2743 6.86608 22.9082C5.76602 22.5523 4.83912 22.1863 4.15668 21.8304C4.22798 19.6037 4.58448 18.8716 4.99191 17.9056ZM13.1028 20.8645C17.8392 21.8609 20.6199 22.4303 23.1867 22.5422V28.0735C20.1106 27.9617 16.9123 27.2601 12.2574 25.9586C12.4713 23.9352 12.7565 22.1965 13.1028 20.8645ZM34.9003 20.8746C35.2466 22.1965 35.5318 23.9453 35.7457 25.9586C31.0908 27.2601 27.8925 27.9617 24.8164 28.0735V22.5523C27.3832 22.4608 30.1639 21.9118 34.9003 20.8746ZM44.2508 23.4573C44.7499 24.9418 45.2693 26.1213 45.4119 28.4599C43.4053 29.6597 40.6857 30.1681 37.7421 30.5036C37.681 28.7649 37.5485 27.1177 37.3856 25.5925C38.9236 25.2265 40.3598 24.8503 41.6228 24.4537C42.621 24.1385 43.5072 23.8132 44.2508 23.4573ZM3.73906 23.4573C4.4928 23.8132 5.37896 24.1385 6.37716 24.4537C7.64019 24.8503 9.07944 25.2265 10.6175 25.5925C10.4545 27.1177 10.3221 28.7649 10.261 30.5036C7.31425 30.1681 4.58448 29.6597 2.57789 28.4599C2.72049 26.1213 3.23996 24.9418 3.73906 23.4573ZM35.8985 27.6058C36.0207 29.1411 36.1022 30.8087 36.1225 32.5372C30.6426 33.8997 27.6073 34.6521 24.8164 34.7741V29.6495C28.0147 29.558 31.3149 28.8666 35.8985 27.6058ZM12.1046 27.6058C16.6882 28.8666 19.9884 29.558 23.1867 29.6495V34.7741C20.3958 34.6521 17.3604 33.8997 11.8805 32.5372C11.9009 30.8087 11.9824 29.1411 12.1046 27.6058ZM2.10934 30.0664C4.43169 31.3679 7.28369 31.856 10.2101 32.161C10.1999 32.7609 10.1897 33.371 10.1897 33.9912C9.93504 34.7538 9.56835 35.3435 8.85535 35.7909L8.81461 35.8214C7.22258 35.8824 5.48082 35.5266 3.93259 34.9572C2.96495 34.6013 2.0686 34.1539 1.3556 33.7065C1.17226 32.5575 1.58987 31.3679 2.10934 30.0664ZM45.8805 30.0766C46.4101 31.3679 46.8176 32.5575 46.6444 33.7065C45.9314 34.1437 45.0351 34.6013 44.0572 34.9572C42.5192 35.5266 40.7672 35.8824 39.1884 35.8214L39.1477 35.7909C38.4347 35.3435 38.068 34.7538 37.8134 33.9912C37.8134 33.371 37.8032 32.7609 37.793 32.161C40.7061 31.856 43.5581 31.3679 45.8805 30.0766ZM36.1327 34.2149C36.1327 35.6587 36.092 37.1331 36.0105 38.6176C34.8799 38.2007 33.8104 37.7635 33.0057 37.2653C32.0483 36.6755 31.4982 36.1163 31.3658 35.3639C32.7409 35.0487 34.3299 34.6623 36.1327 34.2149ZM11.8703 34.2149C13.6732 34.6623 15.2622 35.0487 16.6372 35.3639C16.5048 36.1163 15.9548 36.6755 14.9973 37.2653C14.1927 37.7635 13.1232 38.2007 11.9926 38.6176C11.9111 37.1331 11.8703 35.6587 11.8703 34.2149ZM46.95 35.4249L47.5 37.7737C45.6666 38.6278 44.1285 39.4514 40.8385 39.4819L39.9931 37.4483C41.5821 37.3873 43.1813 37.0111 44.6276 36.4823C45.473 36.1671 46.2573 35.8113 46.95 35.4249ZM1.05003 35.4249C1.74266 35.8113 2.52696 36.1671 3.37238 36.4823C4.80856 37.0111 6.41791 37.3873 8.00688 37.4483L7.16146 39.4819C3.86129 39.4514 2.33343 38.6278 0.5 37.7737L1.05003 35.4249ZM29.787 35.6994C30.0518 36.9806 31.0195 37.9567 32.1501 38.6481C32.8529 39.0853 33.6474 39.4412 34.4725 39.7666C31.9362 40.4681 27.8415 41.4951 24.8164 41.668V36.3603C26.3239 36.2993 27.8925 36.0858 29.787 35.6994ZM18.216 35.6994C20.1106 36.0858 21.6792 36.2993 23.1867 36.3603V41.668C20.1615 41.4951 16.0668 40.4681 13.5306 39.7666C14.3556 39.4412 15.1501 39.0853 15.8529 38.6481C16.9836 37.9567 17.9512 36.9806 18.216 35.6994ZM35.8475 41.0782C35.7049 42.6644 35.5216 44.2303 35.2873 45.7453C31.0704 47.1281 27.9027 47.8704 24.8164 47.9822V43.2948C28.5749 43.1118 33.4539 41.79 35.8475 41.0782ZM12.1555 41.0782C14.5492 41.79 19.4281 43.1118 23.1867 43.2948V47.9822C20.1004 47.8704 16.9326 47.1281 12.7157 45.7453C12.4815 44.2303 12.2981 42.6644 12.1555 41.0782ZM24.6636 47.9924C24.2256 48.0025 23.7774 48.0025 23.3395 47.9924H24.6636Z" fill="#28536B"/>
</svg>
