<svg width="357" height="326" viewBox="0 0 357 326" fill="none" xmlns="http://www.w3.org/2000/svg">
<g clip-path="url(#clip0_243_247)">
<mask id="mask0_243_247" style="mask-type:luminance" maskUnits="userSpaceOnUse" x="0" y="0" width="357" height="326">
<path d="M357 0H0V326H357V0Z" fill="white"/>
</mask>
<g mask="url(#mask0_243_247)">
<path d="M181.88 268.158C139.863 277.408 95.6472 253.43 54.0402 264.649C51.8992 265.224 49.7052 265.938 48.0542 267.504C46.4022 269.069 45.4442 271.712 46.3492 273.866C46.9482 275.081 47.8872 276.096 49.0512 276.787C52.9502 279.43 57.5422 280.619 62.0812 281.465C100.404 288.608 139.269 274.104 178.16 274.065C193.555 274.065 208.858 276.305 224.187 277.864C247.088 280.19 270.101 280.95 293.095 281.452C298.242 281.564 303.713 281.571 308.087 278.67C309.832 277.52 311.457 275.446 310.882 273.344C310.261 271.078 307.638 270.391 305.451 270.094C263.56 264.444 220.876 261.134 179.25 268.772" fill="#7EBEE0"/>
<path d="M202.333 249.783C202.598 250.847 201.95 251.925 200.886 252.19L193.672 253.989C192.609 254.254 191.531 253.606 191.265 252.543C191 251.479 191.648 250.401 192.712 250.136L199.926 248.337C200.989 248.072 202.068 248.72 202.333 249.783Z" fill="#002C42"/>
<mask id="mask1_243_247" style="mask-type:luminance" maskUnits="userSpaceOnUse" x="164" y="188" width="64" height="89">
<path d="M178.777 188.342C170.277 189.342 168.527 194.592 165.402 206.717C161.607 221.443 179.143 271.256 179.143 271.256L227.643 276.256L195.902 199.967C195.902 199.967 187.277 187.342 178.777 188.342Z" fill="white"/>
</mask>
<g mask="url(#mask1_243_247)">
<path d="M185.572 247.18L184.957 246.863C184.66 248.068 184.772 249.337 185.274 250.471C185.38 250.739 185.545 250.982 185.757 251.179C186.052 251.393 186.403 251.517 186.768 251.535C187.703 251.592 188.641 251.504 189.549 251.277C194.476 250.271 199.267 248.688 203.822 246.559C204.183 246.441 204.517 246.253 204.804 246.004C205.091 245.756 205.325 245.452 205.494 245.112C200.585 243.89 195.43 246.513 190.421 245.773C190.175 245.72 189.921 245.72 189.675 245.773C189.462 245.86 189.267 245.985 189.1 246.143C188.583 246.546 187.99 246.839 187.356 247.004C186.722 247.168 186.06 247.201 185.413 247.101" fill="#002C42"/>
</g>
<mask id="mask2_243_247" style="mask-type:luminance" maskUnits="userSpaceOnUse" x="170" y="187" width="49" height="98">
<path d="M192.162 187.581C183.669 186.529 180.719 191.211 174.797 202.243C167.606 215.642 172.778 268.198 172.778 268.198L218.693 284.601L206.027 202.949C206.027 202.949 200.656 188.633 192.162 187.581Z" fill="white"/>
</mask>
<g mask="url(#mask2_243_247)">
<path d="M179.975 211.899C180.684 223.413 182.16 234.865 184.395 246.182C184.461 247.012 184.816 247.792 185.398 248.387C186.455 249.238 188.146 248.585 188.87 247.436C189.594 246.286 189.637 244.862 189.704 243.503C190.211 233.75 193.358 224.16 192.754 214.413C192.699 213.719 192.579 212.874 191.974 212.487C191.571 212.285 191.12 212.201 190.672 212.243L181.881 212.279L179.695 212.287" fill="white"/>
<path d="M179.673 211.934C180.059 218.166 180.665 224.374 181.495 230.56C181.909 233.641 182.378 236.714 182.901 239.782C183.16 241.307 183.437 242.839 183.723 244.365C183.867 245.081 183.998 245.827 184.154 246.553C184.249 247.152 184.47 247.727 184.803 248.235C185.125 248.657 185.582 248.957 186.097 249.083C186.613 249.209 187.158 249.156 187.639 248.931C188.189 248.679 188.67 248.298 189.043 247.82C189.414 247.343 189.664 246.783 189.773 246.188C190.025 244.706 190.165 243.208 190.191 241.706C190.315 240.178 190.498 238.658 190.713 237.14C191.553 231.161 192.857 225.228 193.136 219.18C193.208 217.681 193.201 216.178 193.117 214.679C193.052 213.554 192.832 212.256 191.524 212.016C190.762 211.928 189.992 211.913 189.228 211.97L186.873 211.979L182.104 212.006L179.673 211.934C179.252 211.933 179.265 212.596 179.688 212.619L188.703 212.585C189.431 212.586 190.158 212.566 190.882 212.581C191.207 212.544 191.532 212.633 191.793 212.83C192.054 213.026 192.229 213.315 192.283 213.637C192.402 214.274 192.455 214.92 192.442 215.568C192.471 216.255 192.475 216.992 192.464 217.703C192.371 223.436 191.225 229.081 190.331 234.726C189.894 237.51 189.521 240.31 189.354 243.126C189.278 244.522 189.304 246.107 188.51 247.321C187.935 248.166 186.586 248.842 185.644 248.189C185.194 247.809 184.896 247.28 184.804 246.698C184.633 246.037 184.525 245.364 184.397 244.693C184.116 243.263 183.852 241.791 183.602 240.341C183.093 237.437 182.639 234.527 182.237 231.613C181.427 225.795 180.817 219.955 180.407 214.095C180.356 213.362 180.313 212.624 180.268 211.891C180.243 211.464 179.585 211.485 179.585 211.9L179.673 211.934Z" fill="#002C42"/>
<path d="M151.503 125.891C149.783 133.463 149.912 141.739 153.558 148.592C156.067 153.29 160.039 157.039 163.749 160.887C167.535 164.829 171.102 168.975 174.433 173.309C176.861 176.476 179.193 179.809 180.435 183.624C183.621 193.249 179.238 203.659 174.663 212.721L192.347 214.491C193.893 214.645 195.758 214.646 196.659 213.411C197.031 212.792 197.247 212.09 197.288 211.368C199.649 193.341 197.918 175.013 192.228 157.745C191.099 154.332 189.809 150.962 188.537 147.602L183.153 133.486C182.721 132.085 182.013 130.785 181.07 129.662C179.387 127.923 176.8 127.514 174.399 127.238C166.85 126.354 159.266 125.843 151.644 125.708" fill="white"/>
<path d="M151.183 125.811C149.852 131.71 149.557 137.992 151.29 143.858C152.168 146.825 153.555 149.615 155.391 152.104C157.331 154.65 159.452 157.052 161.739 159.292C166.679 164.26 171.258 169.576 175.44 175.196C177.446 177.768 179.037 180.637 180.159 183.7C181.081 186.599 181.417 189.653 181.148 192.684C180.658 198.931 178.159 204.877 175.431 210.453C175.09 211.152 174.744 211.842 174.39 212.537C174.362 212.587 174.349 212.645 174.351 212.703C174.352 212.76 174.368 212.816 174.398 212.866C174.428 212.914 174.47 212.956 174.52 212.984C174.571 213.012 174.628 213.025 174.686 213.025L189.585 214.52C190.741 214.634 191.894 214.786 193.048 214.852C193.887 214.935 194.733 214.85 195.538 214.6C195.938 214.468 196.305 214.248 196.611 213.958C196.917 213.669 197.155 213.317 197.31 212.925C197.63 211.863 197.815 210.765 197.858 209.658C199.935 191.92 198.069 173.942 192.395 157.009C190.812 152.369 189.041 147.827 187.303 143.264L184.563 136.259C184.161 135.126 183.702 133.973 183.254 132.83C182.923 131.898 182.483 131.009 181.943 130.181C180.727 128.455 178.808 127.624 176.791 127.218C174.55 126.835 172.291 126.568 170.022 126.415C165.106 125.936 160.177 125.615 155.237 125.452C154.044 125.41 152.846 125.382 151.655 125.355C151.227 125.353 151.249 126.011 151.665 126.038C156.501 126.126 161.325 126.364 166.137 126.75C168.547 126.946 170.951 127.176 173.349 127.442C175.382 127.668 177.564 127.842 179.404 128.83C181.333 129.868 182.144 131.774 182.89 133.726C183.755 136.007 184.622 138.282 185.49 140.554C187.196 145.054 188.952 149.52 190.577 154.047C193.598 162.343 195.72 170.939 196.905 179.688C198.048 188.268 198.268 196.945 197.561 205.571C197.47 206.692 197.36 207.808 197.235 208.926C197.154 209.999 197.013 211.066 196.813 212.123C196.738 212.577 196.535 213 196.226 213.341C195.916 213.681 195.514 213.924 195.07 214.041C194.244 214.226 193.391 214.264 192.553 214.153C187.778 213.731 183.016 213.176 178.243 212.721L174.644 212.362L174.94 212.849C177.76 207.309 180.439 201.517 181.456 195.337C181.984 192.375 181.998 189.343 181.497 186.374C180.883 183.279 179.68 180.33 177.952 177.689C176.113 174.878 174.103 172.182 171.937 169.615C169.659 166.826 167.283 164.122 164.809 161.506C160.381 156.836 155.368 152.391 152.88 146.338C150.541 140.642 150.359 134.25 151.41 128.242C151.54 127.492 151.691 126.738 151.86 125.991C151.881 125.906 151.867 125.817 151.822 125.742C151.776 125.667 151.703 125.613 151.618 125.592C151.532 125.571 151.442 125.585 151.367 125.631C151.292 125.676 151.239 125.749 151.219 125.834L151.183 125.811Z" fill="#002C42"/>
</g>
<mask id="mask3_243_247" style="mask-type:luminance" maskUnits="userSpaceOnUse" x="112" y="128" width="92" height="67">
<path d="M139.987 128.387C139.987 128.387 113.587 135.377 112.346 148.968C111.105 162.558 158.519 180.921 163.943 183.872C169.367 186.823 182.89 198.461 195.368 193.254C207.846 188.047 201.321 167.252 201.321 167.252L175.627 129.894L139.987 128.387Z" fill="white"/>
</mask>
<g mask="url(#mask3_243_247)">
<path d="M133.105 140.39C133.672 148.135 136.212 156.013 141.701 161.502C145.473 165.262 150.367 167.687 155.039 170.284C159.812 172.948 164.434 175.872 168.885 179.043C172.132 181.363 175.337 183.869 177.639 187.156C183.497 195.43 182.346 206.666 180.618 216.669L198.047 213.197C199.571 212.893 201.354 212.349 201.855 210.905C202.03 210.204 202.032 209.47 201.861 208.767C198.853 190.836 191.844 173.813 181.358 158.96C179.281 156.026 177.064 153.18 174.866 150.337L165.593 138.41C164.771 137.196 163.714 136.159 162.484 135.361C160.367 134.19 157.773 134.554 155.396 134.991C147.918 136.35 140.515 138.078 133.186 140.174" fill="white"/>
<path d="M132.776 140.408C133.226 146.438 134.779 152.532 138.149 157.637C139.855 160.217 141.997 162.481 144.481 164.325C147.079 166.193 149.81 167.871 152.651 169.345C158.827 172.653 164.759 176.4 170.4 180.554C173.069 182.428 175.43 184.706 177.397 187.308C179.125 189.811 180.339 192.635 180.967 195.611C182.323 201.73 181.67 208.146 180.69 214.276C180.568 215.044 180.438 215.805 180.303 216.573C180.291 216.629 180.295 216.688 180.313 216.743C180.332 216.797 180.363 216.847 180.407 216.885C180.45 216.923 180.501 216.951 180.558 216.963C180.615 216.975 180.673 216.97 180.728 216.953L195.414 214.031C196.553 213.802 197.7 213.611 198.823 213.337C199.65 213.172 200.435 212.843 201.131 212.368C201.475 212.126 201.762 211.808 201.97 211.442C202.178 211.076 202.303 210.669 202.336 210.25C202.332 209.14 202.188 208.036 201.907 206.964C198.712 189.394 191.676 172.745 181.304 158.208C178.434 154.232 175.414 150.405 172.418 146.549L167.752 140.65C167.036 139.684 166.261 138.716 165.499 137.753C164.91 136.959 164.23 136.237 163.471 135.602C161.804 134.306 159.725 134.072 157.678 134.273C155.423 134.562 153.184 134.966 150.97 135.483C146.128 136.461 141.321 137.593 136.548 138.88C135.395 139.189 134.241 139.512 133.094 139.834C132.684 139.957 132.898 140.58 133.303 140.484C137.954 139.156 142.637 137.975 147.352 136.938C149.714 136.422 152.081 135.939 154.452 135.493C156.462 135.116 158.6 134.644 160.648 135.052C162.796 135.482 164.129 137.067 165.412 138.716C166.906 140.645 168.4 142.568 169.894 144.487C172.839 148.292 175.823 152.051 178.7 155.906C184.012 162.958 188.552 170.559 192.241 178.58C195.84 186.452 198.585 194.686 200.428 203.143C200.669 204.242 200.889 205.341 201.096 206.447C201.333 207.496 201.509 208.558 201.626 209.627C201.688 210.084 201.617 210.547 201.421 210.964C201.224 211.38 200.911 211.73 200.52 211.971C199.784 212.389 198.98 212.674 198.145 212.813C193.456 213.805 188.739 214.665 184.042 215.624L180.495 216.331L180.92 216.711C181.998 210.589 182.869 204.266 182.037 198.059C181.676 195.072 180.804 192.168 179.458 189.475C177.967 186.694 175.955 184.225 173.531 182.204C170.951 180.053 168.241 178.062 165.42 176.24C162.426 174.237 159.364 172.346 156.234 170.566C150.635 167.393 144.542 164.606 140.394 159.544C136.494 154.78 134.453 148.72 133.703 142.666C133.608 141.911 133.532 141.146 133.476 140.382C133.471 140.295 133.432 140.214 133.367 140.155C133.301 140.097 133.215 140.066 133.128 140.071C133.04 140.076 132.958 140.116 132.899 140.181C132.841 140.247 132.812 140.331 132.817 140.419L132.776 140.408Z" fill="#002C42"/>
</g>
<path d="M135.785 273.531C158.754 266.669 172.029 243.218 165.436 221.152C158.844 199.085 134.88 186.76 111.912 193.622C88.9434 200.484 75.6686 223.935 82.2614 246C88.8537 268.067 112.817 280.393 135.785 273.531Z" fill="#E7F3F9"/>
<path d="M135.785 273.531C158.754 266.669 172.029 243.218 165.436 221.152C158.844 199.085 134.881 186.761 111.913 193.623C88.9439 200.485 75.6691 223.936 82.2619 246.001C88.8542 268.068 112.817 280.393 135.785 273.531Z" stroke="#002C42" stroke-width="4" stroke-miterlimit="10"/>
<path d="M109.879 210.156C107.368 210.671 104.998 211.724 102.932 213.242C100.865 214.76 99.1498 216.706 97.9057 218.947C97.2057 220.217 96.6717 221.572 96.317 222.978C96.213 223.387 96.8294 223.63 96.9315 223.214C97.558 220.821 98.6929 218.591 100.261 216.679C101.828 214.765 103.791 213.212 106.013 212.127C107.271 211.517 108.604 211.071 109.976 210.801C110.396 210.719 110.297 210.068 109.865 210.126L109.879 210.156Z" fill="#002C42"/>
<path d="M109.172 217.407C107.653 217.957 106.327 218.935 105.353 220.222C104.379 221.51 103.8 223.054 103.685 224.664C103.66 225.089 104.319 225.152 104.345 224.727C104.45 223.233 104.988 221.802 105.893 220.608C106.799 219.415 108.033 218.512 109.445 218.009C109.846 217.87 109.567 217.272 109.172 217.407Z" fill="#002C42"/>
<path d="M275.678 275.657C298.647 268.795 311.923 245.345 305.329 223.278C298.737 201.212 274.774 188.887 251.806 195.749C228.837 202.611 215.562 226.062 222.155 248.127C228.747 270.193 252.711 282.52 275.678 275.657Z" fill="#E7F3F9"/>
<path d="M275.678 275.657C298.647 268.795 311.923 245.345 305.329 223.278C298.737 201.212 274.774 188.887 251.806 195.749C228.837 202.611 215.562 226.062 222.155 248.127C228.747 270.193 252.711 282.52 275.678 275.657Z" stroke="#002C42" stroke-width="4" stroke-miterlimit="10"/>
<path d="M289.647 248.551C288.636 251.055 286.884 253.192 284.625 254.674C284.268 254.91 284.692 255.414 285.054 255.205C287.405 253.649 289.226 251.413 290.274 248.796C290.431 248.405 289.809 248.172 289.655 248.568L289.647 248.551Z" fill="#002C42"/>
<path d="M297.936 245.008C297.351 248.129 296.148 251.102 294.397 253.752C292.647 256.403 290.384 258.677 287.743 260.442C286.254 261.436 284.654 262.25 282.973 262.867C282.574 263.011 282.847 263.613 283.246 263.468C286.306 262.307 289.101 260.544 291.468 258.283C293.834 256.024 295.724 253.312 297.026 250.31C297.751 248.633 298.277 246.878 298.592 245.079C298.662 244.656 298.019 244.614 297.936 245.008Z" fill="#002C42"/>
<path d="M147.257 161.416L136.315 162.969C135.821 163.004 135.341 163.153 134.915 163.405C134.591 163.656 134.358 164.007 134.254 164.403C134.122 165.019 134.182 165.661 134.424 166.243C134.666 166.824 135.079 167.319 135.608 167.66C136.684 168.324 137.913 168.7 139.176 168.751C142.663 169.111 146.188 168.774 149.543 167.759C150.312 167.587 151.019 167.21 151.592 166.669C152.794 165.348 152.034 163.042 150.534 162.044C149.035 161.046 147.132 161.033 145.341 161.099" fill="#002C42"/>
<path d="M151.543 168.036C176.218 168.366 200.891 168.477 225.566 168.366C225.471 169.187 225.661 170.01 226.126 170.791C202.746 170.608 179.372 171.259 156.144 172.741C155.171 172.857 154.156 172.819 153.22 172.629C152.585 172.414 152.061 172.108 151.701 171.746C151.343 171.383 151.162 170.974 151.176 170.56C151.212 169.737 151.153 168.915 150.996 168.097" fill="#002C42"/>
<path d="M150.336 170.866L179.467 222.873C180.398 224.538 182.077 226.474 183.814 225.681C173.771 207.374 163.733 189.064 153.699 170.748C153.245 169.72 152.519 168.834 151.598 168.19C150.62 167.635 149.14 167.82 148.69 168.851" fill="#002C42"/>
<path d="M181.45 223.725C166.1 224.499 150.818 226.3 135.708 229.117C131.333 229.929 126.933 230.841 122.896 232.704C121.706 233.253 120.41 234.092 120.305 235.394C120.159 237.224 122.353 238.235 124.137 238.697C142.959 243.334 162.397 244.964 181.728 243.527C183.347 243.408 185.032 243.237 186.406 242.351C188.686 240.878 189.379 237.786 189.009 235.083C188.124 228.562 181.549 223.368 175.001 224.029" fill="#0082C3"/>
<path d="M231.27 178.833C226.387 180.531 222.317 184.073 219.159 188.156C216.001 192.24 213.667 196.891 211.348 201.51L203.518 217.097C201.371 221.372 199.052 225.838 195.041 228.428C194.613 228.643 194.255 228.972 194.005 229.38C193.945 229.576 193.925 229.783 193.947 229.987C193.969 230.191 194.032 230.388 194.132 230.568C194.232 230.747 194.367 230.905 194.528 231.031C194.69 231.157 194.876 231.249 195.074 231.303C195.894 231.483 196.751 231.366 197.492 230.972C202.117 228.99 204.807 224.186 207.02 219.654C211.982 209.498 216.272 198.841 223.414 190.053C226.09 186.749 229.275 183.677 233.279 182.269C233.325 181.608 233.184 180.948 232.872 180.363C232.56 179.779 232.09 179.295 231.515 178.966" fill="#002C42"/>
<path d="M157.723 181.324L126.813 231.66C126.906 232.321 127.785 232.605 128.399 232.321C128.973 231.989 129.433 231.491 129.721 230.893L158.251 184.874C158.761 184.211 159.056 183.409 159.097 182.574C159.051 181.748 158.251 180.916 157.459 181.173" fill="#002C42"/>
<path d="M189.379 223.922C189.379 222.832 187.991 222.377 186.908 222.285C183.432 221.987 179.798 222.429 176.785 224.173C173.772 225.918 171.466 229.123 171.407 232.612C171.319 234.329 171.57 236.046 172.147 237.666C172.999 239.78 174.321 241.757 176.309 242.86C178.012 243.761 179.863 244.347 181.774 244.591C184.723 244.952 187.711 244.357 190.297 242.893C191.433 242.163 192.396 241.194 193.117 240.052C193.839 238.911 194.301 237.625 194.473 236.286C194.795 233.607 194.405 230.89 193.343 228.41C192.279 225.727 190.238 222.958 187.357 222.858" fill="#002C42"/>
<path d="M126.827 234.322V233.886C126.825 233.814 126.801 233.744 126.757 233.687C126.713 233.63 126.651 233.589 126.581 233.569C126.232 233.491 125.87 233.489 125.52 233.563C125.17 233.637 124.84 233.786 124.553 233.998C124.219 234.213 123.957 234.523 123.802 234.889C123.646 235.254 123.604 235.657 123.681 236.047C123.788 236.396 124.002 236.703 124.292 236.926C124.582 237.148 124.935 237.275 125.3 237.289C125.666 237.288 126.024 237.187 126.335 236.996C126.647 236.805 126.898 236.531 127.064 236.205C127.26 235.801 127.343 235.35 127.303 234.902C127.264 234.454 127.103 234.025 126.839 233.662C126.794 233.588 126.723 233.534 126.639 233.512C126.555 233.49 126.466 233.501 126.391 233.543C126.315 233.588 126.26 233.661 126.238 233.746C126.216 233.832 126.228 233.922 126.272 233.998C126.446 234.233 126.563 234.505 126.617 234.792C126.671 235.079 126.658 235.375 126.581 235.657C126.505 235.897 126.367 236.112 126.18 236.281C125.993 236.449 125.765 236.564 125.518 236.615C125.289 236.648 125.054 236.607 124.849 236.499C124.644 236.391 124.478 236.221 124.374 236.014C124.292 235.766 124.291 235.499 124.369 235.249C124.447 235 124.601 234.782 124.81 234.626C125.027 234.438 125.283 234.302 125.561 234.23C125.838 234.157 126.13 234.151 126.41 234.21L126.165 233.886V234.322C126.165 234.41 126.2 234.494 126.262 234.556C126.324 234.618 126.408 234.653 126.495 234.653C126.583 234.653 126.668 234.618 126.73 234.556C126.792 234.494 126.827 234.41 126.827 234.322Z" fill="#002C42"/>
<path d="M266.481 233.417C265.714 232.492 264.228 232.928 263.336 233.417C262.806 233.641 262.368 234.039 262.093 234.544C261.819 235.049 261.723 235.632 261.822 236.199C261.97 236.745 262.294 237.227 262.743 237.57C263.192 237.914 263.741 238.101 264.307 238.102C264.892 238.069 265.456 237.875 265.937 237.54C266.418 237.205 266.796 236.743 267.029 236.205C267.459 235.221 267.274 233.688 266.071 233.358C265.983 233.334 265.89 233.346 265.811 233.391C265.733 233.436 265.675 233.511 265.651 233.599C265.628 233.686 265.64 233.78 265.685 233.858C265.73 233.937 265.805 233.995 265.893 234.018C266.619 234.216 266.685 235.188 266.494 235.782C266.347 236.202 266.093 236.575 265.757 236.865C265.421 237.155 265.014 237.351 264.578 237.434C264.164 237.497 263.741 237.422 263.374 237.22C263.007 237.018 262.717 236.701 262.549 236.318C262.402 235.922 262.404 235.485 262.557 235.091C262.709 234.696 263 234.371 263.375 234.177C264.036 233.754 265.39 233.159 266.018 233.913C266.289 234.243 266.758 233.774 266.487 233.45L266.481 233.417Z" fill="#002C42"/>
<path d="M225.607 163.108C228.334 163.244 231.063 163.38 233.794 163.512L236.694 168.923C236.747 169.022 236.8 169.148 236.74 169.24C236.681 169.333 236.549 169.353 236.437 169.353L227.906 169.458L225.059 164.707C224.86 164.442 224.751 164.12 224.748 163.788C224.788 163.458 225.144 163.128 225.409 163.306" fill="#406A7F"/>
<path d="M134.181 233.577C143.55 232.731 152.932 232.021 162.327 231.448C164.997 231.289 167.673 231.14 170.355 230.999C170.778 230.999 170.778 230.338 170.355 230.338C160.96 230.827 151.574 231.457 142.196 232.228C139.517 232.444 136.846 232.664 134.181 232.888C133.765 232.928 133.758 233.59 134.181 233.55V233.577Z" fill="white"/>
<path d="M135.033 236.258C144.734 237.734 154.503 238.72 164.304 239.212C167.07 239.344 169.841 239.441 172.616 239.502C173.039 239.502 173.039 238.842 172.616 238.842C162.896 238.636 153.193 237.942 143.543 236.76C140.768 236.426 137.998 236.045 135.231 235.617C134.815 235.558 134.637 236.192 135.059 236.278L135.033 236.258Z" fill="white"/>
<path d="M220.354 157.605C219.112 158.926 219.898 161.094 220.737 162.712C230.265 181.037 240.097 199.193 250.233 217.183C253.536 222.984 257.124 229.076 263.038 232.142C264.485 232.888 266.269 233.734 266.427 235.353C267.088 234.408 266.744 233.068 266.037 232.176C265.252 231.338 264.364 230.603 263.394 229.989C261.042 228.192 259.344 225.681 257.752 223.183C246.737 205.892 238.425 187.028 229.023 168.798C227.345 165.534 225.629 162.287 223.876 159.058C223.551 158.27 222.978 157.608 222.244 157.175C221.471 156.825 220.327 157.241 220.261 158.081" fill="#002C42"/>
<path d="M240.362 188.804L235.525 192.042C235.287 192.2 235.016 192.458 235.122 192.702C235.161 192.771 235.213 192.832 235.277 192.878C235.34 192.925 235.414 192.957 235.491 192.973C236.251 193.185 237.024 192.729 237.685 192.312L240.784 190.284C241.233 189.993 241.748 189.544 241.603 189.022C241.534 188.846 241.41 188.697 241.249 188.597C241.088 188.497 240.9 188.451 240.711 188.467C240.334 188.507 239.971 188.632 239.648 188.83" fill="#00689D"/>
<path d="M240.196 188.52L236.542 190.965L235.683 191.546C235.402 191.697 235.151 191.899 234.943 192.141C234.867 192.234 234.816 192.345 234.795 192.463C234.773 192.582 234.782 192.704 234.82 192.818C234.858 192.932 234.925 193.034 235.013 193.116C235.102 193.197 235.21 193.255 235.326 193.284C236.569 193.72 237.857 192.623 238.815 191.962L240.573 190.814C241.094 190.553 241.535 190.155 241.848 189.663C241.908 189.539 241.942 189.404 241.95 189.266C241.957 189.128 241.936 188.991 241.89 188.861C241.843 188.731 241.771 188.611 241.677 188.51C241.584 188.408 241.471 188.326 241.346 188.269C241.035 188.164 240.703 188.134 240.378 188.182C240.053 188.229 239.744 188.351 239.476 188.54C239.099 188.738 239.436 189.307 239.813 189.115C240.189 188.924 241.095 188.455 241.286 189.115C241.438 189.624 240.507 190.079 240.189 190.284L238.584 191.335C238.042 191.691 237.5 192.081 236.925 192.392C236.652 192.556 236.349 192.665 236.033 192.71C235.885 192.74 235.732 192.74 235.584 192.71C235.425 192.657 235.419 192.63 235.525 192.497C235.736 192.301 235.974 192.135 236.232 192.003L237.09 191.428L240.526 189.122C240.883 188.891 240.526 188.315 240.196 188.553V188.52Z" fill="#00689D"/>
<path d="M229.902 156.943C238.299 156.268 246.729 156.092 255.147 156.415C255.54 156.395 255.932 156.478 256.284 156.653C256.635 156.919 256.898 157.285 257.037 157.703C258.782 161.78 258.768 166.373 258.583 170.806C258.431 174.46 258.187 178.114 257.923 181.761C257.936 181.999 257.864 182.234 257.718 182.422C257.616 182.496 257.501 182.548 257.378 182.575C257.256 182.602 257.128 182.604 257.004 182.581L243.657 181.92C242.919 181.934 242.187 181.79 241.51 181.497C240.728 180.998 240.101 180.291 239.699 179.455C235.529 172.424 232.169 164.942 229.684 157.155" fill="#0082C3"/>
<path d="M221.094 158.958C220.839 159.07 220.552 159.085 220.287 159C220.022 158.914 219.797 158.735 219.654 158.496C219.39 158.007 219.251 157.46 219.251 156.903C219.222 156.741 219.24 156.573 219.304 156.421C219.43 156.246 219.619 156.128 219.831 156.091C221.354 155.629 222.96 155.503 224.537 155.721C224.604 155.721 224.669 155.744 224.721 155.787C224.752 155.823 224.777 155.865 224.79 155.91C224.804 155.956 224.807 156.004 224.8 156.051V157.677C224.816 157.875 224.785 158.074 224.708 158.258C224.609 158.397 224.481 158.513 224.333 158.597C224.185 158.682 224.02 158.733 223.85 158.747C222.794 158.98 221.712 159.069 220.632 159.011" fill="#0082C3"/>
<path d="M220.943 158.674C220.783 158.739 220.606 158.749 220.44 158.702C220.273 158.656 220.127 158.555 220.024 158.417C219.772 158.07 219.632 157.655 219.621 157.227C219.588 157.026 219.588 156.821 219.621 156.619C219.681 156.441 219.998 156.395 220.156 156.348C220.621 156.22 221.093 156.12 221.57 156.051C222.07 155.989 222.574 155.962 223.077 155.972H223.804C224.055 155.965 224.306 155.992 224.55 156.051C224.55 156.051 224.504 155.952 224.504 156.018C224.501 156.082 224.501 156.146 224.504 156.21V157.353C224.534 157.572 224.534 157.794 224.504 158.014C224.471 158.102 224.415 158.181 224.342 158.241C224.269 158.301 224.181 158.341 224.088 158.357C222.981 158.663 221.83 158.772 220.685 158.681C220.262 158.681 220.262 159.342 220.685 159.342C221.386 159.377 222.089 159.353 222.786 159.269C223.412 159.243 224.027 159.104 224.603 158.859C225.152 158.555 225.185 158.02 225.178 157.458V156.481C225.227 156.186 225.184 155.883 225.053 155.615C224.881 155.39 224.59 155.39 224.332 155.357C224.075 155.324 223.672 155.298 223.295 155.291C222.631 155.279 221.968 155.325 221.313 155.43C220.689 155.498 220.078 155.651 219.496 155.886C218.921 156.163 218.954 156.725 219.013 157.273C219.026 157.926 219.286 158.549 219.74 159.018C219.95 159.211 220.212 159.336 220.494 159.378C220.776 159.419 221.063 159.374 221.319 159.249C221.696 159.044 221.359 158.476 220.989 158.674H220.943Z" fill="#002C42"/>
<path d="M205.977 145.93L215.809 146.214L220.645 146.359C222.132 146.405 223.632 146.425 225.112 146.617C226.446 146.754 227.745 147.126 228.951 147.714C229.916 148.209 230.86 149.035 230.986 150.053C231.29 152.616 228.535 154.018 226.361 154.52C224.742 154.842 223.095 154.997 221.445 154.983C220.018 155.016 218.544 155.525 218.359 157.124C218.359 157.386 218.464 157.638 218.649 157.824C218.835 158.01 219.087 158.115 219.35 158.115C219.611 158.108 219.859 158.001 220.044 157.817C220.228 157.632 220.335 157.384 220.341 157.124C220.341 157.163 220.341 157.309 220.341 157.124C220.341 157.084 220.295 157.295 220.256 157.275C220.216 157.256 220.381 157.15 220.374 157.157C220.255 157.249 220.368 157.163 220.374 157.157C220.493 157.064 220.559 157.057 220.46 157.104C220.361 157.15 220.507 157.104 220.52 157.104C220.659 157.064 220.804 157.024 220.949 156.998C221.095 156.972 220.824 156.998 220.996 156.998H221.2H221.551H222.7C224.316 156.97 225.922 156.749 227.484 156.337C230.226 155.564 232.935 153.581 232.968 150.469C233.008 147.251 229.724 145.612 227.021 145.005C225.499 144.692 223.951 144.517 222.396 144.483C220.744 144.423 219.093 144.383 217.447 144.337L205.977 144C204.702 143.961 204.702 145.943 205.977 145.982V145.93Z" fill="#002C42"/>
<path d="M184.912 229.862C184.512 229.678 184.078 229.577 183.637 229.565C183.196 229.554 182.758 229.633 182.348 229.797C181.939 229.961 181.567 230.206 181.256 230.518C180.945 230.831 180.701 231.203 180.538 231.613C180.332 232.286 180.345 233.007 180.577 233.671C180.809 234.336 181.246 234.909 181.827 235.307C182.427 235.684 183.127 235.87 183.836 235.839C184.544 235.809 185.226 235.563 185.791 235.135C186.224 234.805 186.567 234.371 186.789 233.873C187.011 233.375 187.104 232.83 187.06 232.287C186.996 231.747 186.774 231.237 186.422 230.823C186.069 230.409 185.601 230.109 185.077 229.961" fill="#7EBEE0"/>
<path d="M185.077 229.578C184.469 229.29 183.792 229.18 183.123 229.259C182.455 229.339 181.822 229.606 181.298 230.028C180.753 230.461 180.358 231.055 180.171 231.726C179.983 232.396 180.012 233.109 180.254 233.762C180.497 234.465 180.954 235.074 181.561 235.505C182.167 235.937 182.893 236.168 183.637 236.167C184.408 236.176 185.163 235.947 185.798 235.511C186.433 235.074 186.918 234.452 187.185 233.729C187.335 233.327 187.401 232.899 187.378 232.472C187.355 232.044 187.245 231.625 187.053 231.241C186.862 230.858 186.593 230.519 186.265 230.244C185.936 229.969 185.554 229.765 185.143 229.644C185.056 229.621 184.963 229.635 184.885 229.681C184.807 229.727 184.75 229.802 184.727 229.89C184.704 229.977 184.717 230.069 184.763 230.147C184.809 230.225 184.884 230.283 184.972 230.306C185.568 230.481 186.076 230.877 186.389 231.414C186.702 231.951 186.798 232.588 186.657 233.193C186.511 233.806 186.179 234.358 185.705 234.772C185.231 235.187 184.64 235.442 184.014 235.505C183.402 235.583 182.782 235.467 182.241 235.171C181.7 234.876 181.266 234.417 181.001 233.861C180.749 233.363 180.658 232.798 180.741 232.246C180.824 231.695 181.076 231.184 181.463 230.782C181.885 230.353 182.428 230.065 183.019 229.957C183.61 229.848 184.22 229.923 184.767 230.173C185.143 230.358 185.48 229.791 185.097 229.599L185.077 229.578Z" fill="#002C42"/>
<path d="M224.761 144.02L229.902 144.635C230.083 144.677 230.274 144.659 230.444 144.582C230.589 144.47 230.689 144.311 230.728 144.132C230.873 143.652 230.904 143.144 230.82 142.649C230.735 142.154 230.537 141.684 230.242 141.278C229.946 140.873 229.56 140.541 229.114 140.31C228.669 140.078 228.176 139.953 227.673 139.944C227.171 139.935 226.674 140.042 226.221 140.258C225.767 140.473 225.369 140.791 225.059 141.185C224.749 141.58 224.534 142.042 224.432 142.534C224.33 143.026 224.343 143.534 224.471 144.02" fill="#0082C3"/>
<path d="M227.63 139.486L227.207 140.041L227.828 140.207V139.447C227.826 139.36 227.791 139.277 227.729 139.215C227.668 139.153 227.585 139.118 227.497 139.116C227.41 139.118 227.327 139.153 227.266 139.215C227.204 139.277 227.169 139.36 227.167 139.447V140.207C227.166 140.28 227.189 140.352 227.233 140.411C227.278 140.466 227.338 140.507 227.405 140.53C227.464 140.544 227.525 140.544 227.583 140.53C227.665 140.504 227.735 140.45 227.782 140.378L228.204 139.817C228.226 139.779 228.24 139.738 228.246 139.695C228.252 139.651 228.249 139.608 228.237 139.566C228.215 139.482 228.16 139.411 228.085 139.367C228.007 139.324 227.915 139.312 227.828 139.334L227.749 139.367C227.7 139.397 227.659 139.438 227.63 139.486Z" fill="#002C42"/>
<path d="M241.902 163.683L240.097 170.911C240.085 170.955 240.082 171 240.088 171.044C240.094 171.089 240.108 171.132 240.13 171.171C240.153 171.21 240.183 171.244 240.218 171.271C240.254 171.299 240.295 171.319 240.338 171.331C240.381 171.342 240.427 171.345 240.471 171.34C240.516 171.334 240.559 171.319 240.598 171.297C240.637 171.275 240.671 171.245 240.698 171.209C240.726 171.174 240.746 171.133 240.758 171.09L242.569 163.854C242.592 163.767 242.579 163.674 242.533 163.596C242.487 163.518 242.412 163.461 242.324 163.438C242.237 163.415 242.144 163.428 242.066 163.474C241.988 163.52 241.931 163.595 241.908 163.683H241.902Z" fill="white"/>
<path d="M245.541 165.487L244.642 170.008C244.556 170.424 245.19 170.603 245.302 170.186L246.209 165.666C246.288 165.25 245.654 165.071 245.548 165.487H245.541Z" fill="white"/>
<path d="M236.033 160.96C241.759 160.656 247.513 160.644 253.292 160.922C253.715 160.922 253.715 160.26 253.292 160.26C247.535 159.987 241.781 160.001 236.033 160.301C235.61 160.301 235.603 160.96 236.033 160.96Z" fill="#002C42"/>
<path d="M206.605 145.988C206.048 146.801 205.767 147.773 205.805 148.758C205.801 148.892 205.84 149.023 205.917 149.133C206.036 149.232 206.185 149.286 206.339 149.286C209.255 149.557 212.19 149.569 215.108 149.325C216.245 149.232 217.527 149.015 218.154 148.064C218.521 147.361 218.668 146.564 218.577 145.777C218.588 145.695 218.581 145.612 218.557 145.534C218.533 145.455 218.493 145.383 218.438 145.322C218.322 145.238 218.178 145.203 218.035 145.223H210.337C209.108 145.223 207.773 145.256 206.822 146.029" fill="#002C42"/>
<path d="M190.107 138.608C191.012 137.669 192.531 137.656 193.767 138.072C195.002 138.489 196.079 139.268 197.295 139.737C199.938 140.762 202.931 140.233 205.693 139.526C208.455 138.819 211.27 137.947 214.092 138.317C214.412 138.345 214.724 138.428 215.016 138.561C215.299 138.721 215.558 138.921 215.782 139.156L219.292 142.46C219.971 143.063 220.594 143.727 221.154 144.442C221.518 144.944 221.815 145.691 221.379 146.14C221.218 146.287 221.027 146.396 220.818 146.457C219.444 146.986 217.772 147.481 216.596 146.596C216.653 147.288 216.663 147.984 216.628 148.677C216.192 148.783 215.888 148.122 215.439 148.135C215.181 148.135 214.997 148.36 214.779 148.499C214.514 148.628 214.213 148.672 213.922 148.623C213.631 148.575 213.363 148.436 213.154 148.228C212.746 147.801 212.434 147.292 212.241 146.735C212.67 147.23 213.06 148.056 212.518 148.426C212.409 148.495 212.284 148.536 212.155 148.545C211.847 148.534 211.546 148.451 211.275 148.304C211.005 148.156 210.771 147.946 210.596 147.693C210.249 147.18 209.846 146.708 209.393 146.285C209.079 146.05 208.71 145.901 208.32 145.855C207.93 145.809 207.534 145.868 207.174 146.024C206.814 146.18 206.502 146.43 206.27 146.746C206.037 147.062 205.893 147.435 205.851 147.825C205.799 148.32 205.851 148.895 205.521 149.232C205.291 149.402 205.014 149.496 204.728 149.503C201.424 149.886 198.061 149.378 194.764 148.876C193.764 148.808 192.799 148.483 191.963 147.931C191.285 147.3 190.777 146.51 190.484 145.631C189.953 144.481 189.585 143.262 189.392 142.01C189.202 140.748 189.474 139.46 190.159 138.383" fill="white"/>
<path d="M197.671 142.698C198.373 143.335 199.221 143.789 200.141 144.019C201.053 144.181 201.994 144.005 202.785 143.524C204.622 142.565 206.148 140.96 208.223 140.504C210.298 140.048 212.121 141.488 213.509 142.929C214.896 144.369 216.198 146.021 216.383 148.017V148.34C216.383 148.499 216.469 148.591 216.324 148.466C216.124 148.305 215.939 148.128 215.769 147.937L214.507 146.437L211.864 143.305C211.586 142.982 211.124 143.451 211.395 143.775L213.912 146.781L215.174 148.281C215.425 148.672 215.796 148.97 216.231 149.133C217.368 149.404 216.998 147.732 216.892 147.151C216.634 146.137 216.186 145.182 215.57 144.336C214.94 143.472 214.23 142.669 213.449 141.938C212.732 141.207 211.894 140.605 210.972 140.16C208.798 139.196 206.676 140.16 204.852 141.403C203.808 142.103 202.718 143.021 201.489 143.385C200.26 143.748 198.998 143.028 198.093 142.268C197.769 141.997 197.3 142.46 197.63 142.737L197.671 142.698Z" fill="#002C42"/>
<path d="M215.208 148.228C215.135 148.426 214.844 148.447 214.666 148.44C214.399 148.423 214.139 148.346 213.906 148.216C213.424 147.941 213.001 147.573 212.664 147.132C212.282 146.646 211.924 146.141 211.593 145.619L210.33 143.742C210.092 143.391 209.525 143.743 209.763 144.08L211.263 146.306C211.648 146.921 212.091 147.498 212.584 148.03C213.044 148.526 213.635 148.881 214.289 149.054C214.585 149.154 214.907 149.142 215.194 149.02C215.482 148.898 215.714 148.675 215.848 148.393C216 147.997 215.36 147.826 215.188 148.222L215.208 148.228Z" fill="#002C42"/>
<path d="M212.994 148.043C212.882 148.204 212.728 148.33 212.548 148.407C212.368 148.484 212.17 148.509 211.976 148.479C211.742 148.447 211.516 148.367 211.313 148.246C211.11 148.124 210.933 147.963 210.794 147.772C210.463 147.339 210.192 146.863 209.988 146.358C209.757 145.803 209.457 145.279 209.096 144.799C209.034 144.738 208.951 144.704 208.864 144.704C208.778 144.704 208.695 144.738 208.633 144.799C208.572 144.862 208.538 144.946 208.538 145.033C208.538 145.121 208.572 145.205 208.633 145.268C209.446 146.285 209.631 147.706 210.662 148.572C210.87 148.762 211.113 148.91 211.379 149.006C211.644 149.103 211.926 149.146 212.208 149.133C212.472 149.12 212.73 149.044 212.96 148.912C213.189 148.78 213.385 148.595 213.529 148.373C213.754 148.01 213.179 147.713 212.961 148.036L212.994 148.043Z" fill="#002C42"/>
<path d="M209.4 146.662C209.436 146.412 209.436 146.159 209.4 145.909C209.334 145.711 209.089 145.606 208.91 145.527C208.55 145.373 208.157 145.316 207.768 145.361C207.367 145.404 206.981 145.535 206.638 145.747C206.295 145.958 206.003 146.243 205.785 146.583C205.571 146.942 205.461 147.354 205.468 147.772C205.468 148.162 205.594 148.77 205.33 149.094C205.066 149.417 204.729 149.285 204.445 149.279H203.401C202.74 149.279 202.079 149.239 201.418 149.206C200.051 149.153 198.689 149.075 197.327 148.949C195.995 148.853 194.671 148.669 193.363 148.4C192.826 148.306 192.322 148.08 191.896 147.74C191.468 147.284 191.232 146.681 191.235 146.055C191.142 144.721 191.164 143.38 191.301 142.05C191.381 141.297 191.5 140.545 191.652 139.798C191.711 139.527 191.751 139.005 192.075 138.906C192.398 138.807 192.801 139.032 193.066 139.137C194.279 139.623 195.315 140.468 196.032 141.561C196.264 141.918 196.838 141.561 196.601 141.231C195.965 140.255 195.101 139.45 194.083 138.885C193.27 138.442 191.777 137.709 191.229 138.885C191.01 139.476 190.872 140.095 190.819 140.723C190.713 141.384 190.628 142.09 190.581 142.77C190.424 144.145 190.46 145.535 190.687 146.9C190.819 147.427 191.101 147.906 191.498 148.277C191.896 148.649 192.392 148.898 192.927 148.994C194.252 149.304 195.6 149.505 196.957 149.596C198.424 149.741 199.892 149.828 201.366 149.887C202.086 149.92 202.813 149.939 203.533 149.966C204.155 150.066 204.791 150.04 205.403 149.887C206.559 149.372 205.806 147.905 206.281 147.033C206.405 146.81 206.573 146.613 206.774 146.456C206.976 146.299 207.206 146.184 207.453 146.118C207.7 146.052 207.957 146.037 208.21 146.072C208.462 146.108 208.705 146.195 208.923 146.326L208.759 146.042V146.702C208.759 146.789 208.794 146.874 208.856 146.936C208.918 146.998 209.002 147.033 209.09 147.033C209.177 147.033 209.261 146.998 209.323 146.936C209.385 146.874 209.42 146.789 209.42 146.702L209.4 146.662Z" fill="#002C42"/>
<path d="M206.308 139.585L211.461 138.508C212.275 138.258 213.129 138.16 213.979 138.219C214.67 138.381 215.309 138.719 215.83 139.202C217.032 140.22 218.103 141.403 219.2 142.506C219.788 143.101 220.369 143.696 220.97 144.284C221.251 144.53 221.49 144.82 221.677 145.143C221.717 145.216 221.856 145.486 221.809 145.585C221.763 145.684 221.499 145.704 221.42 145.73C221.017 145.856 221.187 146.498 221.597 146.392C222.007 146.286 222.477 146.095 222.47 145.566C222.398 145.003 222.125 144.484 221.703 144.105C220.632 143.002 219.536 141.918 218.459 140.801C217.561 139.771 216.544 138.853 215.427 138.066C214.89 137.728 214.275 137.534 213.642 137.499C212.927 137.511 212.217 137.611 211.527 137.796L206.136 138.919C205.719 139.005 205.891 139.645 206.308 139.579V139.585Z" fill="#002C42"/>
<path d="M221.095 145.856C220.903 145.968 220.862 146.12 220.743 146.292C220.653 146.406 220.529 146.488 220.388 146.523C220.203 146.551 220.014 146.54 219.834 146.49C219.654 146.44 219.486 146.352 219.343 146.233C218.959 145.968 218.617 145.631 218.267 145.334L217.051 144.29C216.727 144.019 216.258 144.482 216.582 144.759L217.903 145.909C218.294 146.284 218.719 146.622 219.172 146.92C219.564 147.169 220.037 147.259 220.493 147.171C220.711 147.125 220.912 147.025 221.08 146.88C221.159 146.813 221.229 146.735 221.286 146.649C221.319 146.603 221.371 146.451 221.411 146.424C221.774 146.206 221.444 145.631 221.08 145.856H221.095Z" fill="#002C42"/>
<path d="M219.231 146.642C218.755 146.743 218.264 146.745 217.788 146.645C217.313 146.545 216.863 146.345 216.469 146.061C216.394 146.017 216.304 146.006 216.22 146.028C216.136 146.05 216.064 146.105 216.02 146.18C215.975 146.255 215.962 146.345 215.983 146.43C216.004 146.516 216.058 146.589 216.132 146.636C216.603 146.958 217.136 147.18 217.696 147.287C218.257 147.394 218.833 147.383 219.39 147.257C219.806 147.164 219.627 146.53 219.211 146.596L219.231 146.642Z" fill="#002C42"/>
<path d="M166.108 61.2495C162.708 59.502 158.881 62.218 155.175 62.8358C150.781 63.5758 146.493 61.3051 142.193 59.9223C134.221 57.7866 122.034 55.9038 116.769 64.2718C115.781 68.8959 112.741 71.2332 108.629 72.3149C100.142 75.6316 89.6984 89.8486 97.1241 99.1057C101.083 103.437 107.213 105.638 112.387 103.507C120.761 99.1447 127.29 91.5436 134.452 85.2992C147.33 74.7527 165.377 90.8433 171.572 74.8512C171.997 73.3799 170.017 72.2079 169.485 70.7668L165.866 60.9127" fill="#002C42"/>
<path d="M98.1518 89.311C99.1291 85.5277 101.21 82.1201 104.13 79.5227C104.445 79.2348 103.953 78.798 103.644 79.0856C100.645 81.7652 98.5089 85.2728 97.5023 89.1668C97.4839 89.2549 97.5008 89.3481 97.5498 89.4237C97.5989 89.5002 97.6768 89.5542 97.7659 89.5726C97.8541 89.592 97.9473 89.5751 98.0228 89.5251C98.0993 89.476 98.1524 89.3991 98.1717 89.31L98.1518 89.311Z" fill="white"/>
<path d="M105.916 77.8817L108.548 76.3348C108.585 76.3109 108.617 76.2811 108.641 76.2448C108.667 76.2084 108.684 76.1675 108.693 76.1249C108.702 76.0824 108.703 76.0373 108.694 75.9947C108.686 75.9521 108.669 75.9109 108.645 75.8741C108.62 75.8374 108.589 75.8059 108.552 75.7819C108.516 75.7577 108.475 75.7398 108.432 75.7321C108.389 75.7233 108.345 75.7246 108.301 75.7339C108.259 75.7432 108.217 75.7593 108.182 75.7842L105.545 77.3664C105.508 77.3894 105.477 77.4201 105.451 77.4554C105.426 77.4918 105.409 77.5337 105.401 77.5762C105.391 77.6198 105.391 77.6639 105.399 77.7065C105.408 77.7501 105.425 77.7913 105.449 77.8271C105.473 77.8639 105.504 77.8953 105.541 77.9194C105.577 77.9435 105.618 77.9604 105.662 77.9691C105.705 77.9769 105.749 77.9756 105.792 77.9663C105.835 77.957 105.875 77.9409 105.911 77.916L105.916 77.8817Z" fill="white"/>
<path d="M196.664 220.685C196.929 221.748 196.281 222.826 195.218 223.092L188.003 224.89C186.94 225.155 185.862 224.507 185.597 223.444C185.331 222.381 185.979 221.302 187.043 221.037L194.257 219.239C195.32 218.973 196.399 219.621 196.664 220.685Z" fill="#002C42"/>
<mask id="mask4_243_247" style="mask-type:luminance" maskUnits="userSpaceOnUse" x="159" y="159" width="63" height="89">
<path d="M173.107 159.243C164.607 160.243 162.857 165.493 159.732 177.618C155.937 192.344 173.473 242.157 173.473 242.157L221.973 247.157L190.232 170.868C190.232 170.868 181.607 158.243 173.107 159.243Z" fill="white"/>
</mask>
<g mask="url(#mask4_243_247)">
<path d="M179.902 218.081L179.287 217.764C178.99 218.969 179.102 220.238 179.604 221.372C179.71 221.64 179.875 221.883 180.087 222.08C180.382 222.294 180.733 222.418 181.098 222.436C182.033 222.493 182.971 222.405 183.879 222.178C188.806 221.172 193.597 219.589 198.152 217.46C198.513 217.342 198.847 217.154 199.134 216.905C199.421 216.657 199.655 216.353 199.824 216.013C194.915 214.791 189.76 217.414 184.751 216.674C184.505 216.621 184.251 216.621 184.005 216.674C183.792 216.761 183.597 216.886 183.43 217.044C182.913 217.447 182.32 217.74 181.686 217.905C181.052 218.069 180.39 218.102 179.743 218.002" fill="#002C42"/>
</g>
<mask id="mask5_243_247" style="mask-type:luminance" maskUnits="userSpaceOnUse" x="157" y="165" width="61" height="102">
<path d="M212.42 168.312C205.42 163.387 200.615 166.132 190.199 173.082C177.55 181.523 157.392 230.334 157.392 230.334L190.194 266.407L217.426 188.395C217.426 188.395 219.421 173.236 212.42 168.312Z" fill="white"/>
</mask>
<g mask="url(#mask5_243_247)">
<path d="M190.225 184.038C185.435 194.532 181.351 205.332 177.999 216.371C177.667 217.134 177.613 217.989 177.847 218.788C178.38 220.036 180.179 220.255 181.359 219.582C182.538 218.908 183.246 217.671 183.945 216.504C188.98 208.135 196.268 201.153 200.32 192.268C200.598 191.63 200.889 190.828 200.538 190.201C200.277 189.834 199.919 189.547 199.504 189.374L191.729 185.27L189.796 184.249" fill="white"/>
<path d="M189.943 183.927C187.353 189.608 184.967 195.372 182.789 201.22C181.705 204.134 180.674 207.067 179.692 210.02C179.203 211.488 178.727 212.97 178.261 214.451C178.051 215.151 177.817 215.87 177.612 216.584C177.414 217.158 177.339 217.769 177.393 218.375C177.479 218.898 177.741 219.377 178.137 219.731C178.533 220.086 179.039 220.295 179.569 220.322C180.173 220.359 180.777 220.249 181.33 220.002C181.883 219.756 182.367 219.38 182.743 218.906C183.662 217.717 184.49 216.461 185.22 215.147C186.048 213.857 186.924 212.602 187.829 211.363C191.382 206.483 195.323 201.861 198.415 196.654C199.183 195.365 199.885 194.036 200.515 192.673C200.987 191.65 201.404 190.401 200.362 189.574C199.731 189.138 199.06 188.763 198.358 188.454L196.276 187.354L192.055 185.135L189.943 183.927C189.572 183.728 189.272 184.32 189.634 184.539L197.606 188.75C198.247 189.093 198.898 189.417 199.53 189.771C199.834 189.891 200.08 190.123 200.217 190.419C200.355 190.715 200.373 191.053 200.269 191.362C200.075 191.98 199.818 192.575 199.501 193.14C199.204 193.761 198.861 194.412 198.516 195.035C195.738 200.051 192.071 204.492 188.627 209.054C186.931 211.305 185.286 213.6 183.813 216.007C183.089 217.203 182.367 218.614 181.095 219.311C180.19 219.787 178.681 219.749 178.157 218.73C177.939 218.183 177.925 217.575 178.117 217.019C178.278 216.355 178.5 215.71 178.702 215.058C179.126 213.663 179.586 212.24 180.047 210.843C180.965 208.041 181.933 205.26 182.949 202.499C184.971 196.984 187.179 191.544 189.574 186.18C189.874 185.509 190.183 184.837 190.488 184.169C190.667 183.78 190.077 183.489 189.882 183.856L189.943 183.927Z" fill="#002C42"/>
<path d="M205.56 94.7468C200.48 100.62 196.7 107.984 196.694 115.746C196.698 121.072 198.44 126.249 199.904 131.39C201.391 136.649 202.587 141.986 203.488 147.377C204.141 151.314 204.631 155.353 203.933 159.304C202.217 169.295 193.453 176.42 185.152 182.265L199.924 192.145C201.216 193.009 202.861 193.887 204.237 193.221C204.857 192.849 205.378 192.332 205.754 191.714C216.317 176.916 223.412 159.929 226.513 142.014C227.122 138.471 227.569 134.89 228.028 131.327L229.917 116.338C230.195 114.898 230.182 113.418 229.877 111.983C229.21 109.657 227.12 108.079 225.13 106.706C218.885 102.375 212.432 98.3566 205.77 94.6517" fill="white"/>
<path d="M205.315 94.5255C201.366 99.105 198.15 104.51 196.92 110.501C196.299 113.532 196.211 116.647 196.66 119.707C197.174 122.866 197.916 125.984 198.88 129.036C200.903 135.744 202.443 142.589 203.49 149.516C204.049 152.729 204.105 156.009 203.654 159.24C203.104 162.232 201.963 165.086 200.301 167.633C196.929 172.916 191.927 176.987 186.897 180.625C186.267 181.081 185.637 181.527 184.998 181.974C184.95 182.005 184.911 182.05 184.885 182.101C184.859 182.152 184.847 182.21 184.85 182.268C184.854 182.325 184.871 182.381 184.902 182.43C184.934 182.478 184.978 182.516 185.029 182.543L197.474 190.871C198.441 191.515 199.386 192.193 200.373 192.793C201.075 193.261 201.862 193.585 202.69 193.742C203.104 193.814 203.532 193.792 203.938 193.681C204.344 193.57 204.72 193.371 205.041 193.098C205.823 192.311 206.502 191.429 207.062 190.473C217.238 175.797 224.049 159.055 227.007 141.443C227.792 136.603 228.367 131.762 228.979 126.918L229.857 119.448C230.034 118.258 230.172 117.026 230.314 115.806C230.461 114.828 230.491 113.837 230.404 112.851C230.143 110.756 228.84 109.12 227.251 107.814C225.453 106.422 223.586 105.123 221.655 103.921C217.542 101.185 213.345 98.5833 209.062 96.1156C208.028 95.5178 206.984 94.9296 205.946 94.3455C205.569 94.1425 205.279 94.7336 205.633 94.9527C209.86 97.3052 214.004 99.7847 218.07 102.389C220.104 103.696 222.117 105.03 224.108 106.392C225.795 107.548 227.64 108.728 228.798 110.465C230.012 112.289 229.832 114.353 229.572 116.426C229.262 118.845 228.957 121.261 228.654 123.674C228.043 128.447 227.492 133.215 226.796 137.974C225.559 146.716 223.388 155.3 220.318 163.577C217.291 171.686 213.403 179.447 208.721 186.727C208.114 187.673 207.492 188.605 206.855 189.534C206.28 190.442 205.653 191.318 204.979 192.156C204.7 192.522 204.322 192.799 203.888 192.955C203.455 193.109 202.986 193.135 202.539 193.029C201.723 192.803 200.953 192.436 200.265 191.944C196.25 189.325 192.309 186.596 188.311 183.949L185.304 181.939L185.336 182.508C190.43 178.946 195.519 175.094 199.324 170.12C201.183 167.753 202.622 165.085 203.577 162.23C204.491 159.21 204.816 156.041 204.534 152.897C204.233 149.552 203.728 146.227 203.024 142.944C202.325 139.41 201.501 135.907 200.548 132.434C198.838 126.23 196.505 119.95 197.156 113.438C197.771 107.311 200.618 101.585 204.372 96.7774C204.839 96.1772 205.327 95.5829 205.827 95.0028C205.886 94.9373 205.916 94.8528 205.911 94.7652C205.906 94.6777 205.867 94.5956 205.802 94.5369C205.736 94.4782 205.65 94.4482 205.563 94.4531C205.475 94.4579 205.394 94.4971 205.336 94.5626L205.315 94.5255Z" fill="#002C42"/>
</g>
<mask id="mask6_243_247" style="mask-type:luminance" maskUnits="userSpaceOnUse" x="117" y="120" width="98" height="56">
<path d="M134.106 134.003C134.106 134.003 113.111 151.467 117.713 164.315C122.315 177.163 173.052 173.833 179.214 174.223C185.376 174.613 202.544 179.468 211.665 169.488C220.787 159.507 206.106 143.399 206.106 143.399L167.061 120.349L134.106 134.003Z" fill="white"/>
</mask>
<g mask="url(#mask6_243_247)">
<path d="M132.924 147.787C136.701 154.572 142.325 160.646 149.616 163.31C154.621 165.13 160.082 165.267 165.413 165.653C170.864 166.057 176.287 166.761 181.661 167.761C185.583 168.496 189.545 169.419 193.018 171.429C201.817 176.463 205.509 187.138 208.158 196.938L222.5 186.444C223.754 185.526 225.142 184.281 224.988 182.76C224.851 182.051 224.543 181.384 224.092 180.819C213.807 165.826 200.277 153.342 184.508 144.292C181.388 142.506 178.178 140.86 174.987 139.208L161.551 132.3C160.294 131.545 158.899 131.051 157.446 130.845C155.033 130.675 152.834 132.098 150.863 133.497C144.654 137.881 138.669 142.567 132.906 147.558" fill="white"/>
<path d="M132.632 147.943C135.582 153.221 139.559 158.094 144.766 161.302C147.401 162.923 150.297 164.073 153.326 164.699C156.47 165.298 159.653 165.669 162.851 165.809C169.846 166.206 176.805 167.104 183.671 168.493C186.882 169.068 189.982 170.139 192.863 171.669C195.485 173.211 197.776 175.26 199.6 177.695C203.408 182.672 205.52 188.765 207.215 194.738C207.427 195.486 207.63 196.23 207.832 196.984C207.845 197.04 207.873 197.091 207.913 197.134C207.952 197.175 208.002 197.206 208.057 197.223C208.112 197.239 208.171 197.243 208.227 197.23C208.284 197.217 208.334 197.188 208.377 197.15L220.464 188.31C221.401 187.622 222.36 186.966 223.263 186.244C223.943 185.746 224.516 185.117 224.948 184.393C225.157 184.028 225.284 183.619 225.318 183.2C225.353 182.779 225.294 182.358 225.148 181.964C224.676 180.959 224.081 180.019 223.374 179.166C213.071 164.578 199.675 152.445 184.142 143.633C179.864 141.238 175.512 139.04 171.17 136.805L164.453 133.422C163.396 132.848 162.285 132.296 161.188 131.744C160.32 131.272 159.398 130.904 158.443 130.649C156.385 130.176 154.402 130.84 152.63 131.885C150.706 133.097 148.846 134.407 147.056 135.809C143.077 138.736 139.195 141.789 135.409 144.967C134.494 145.734 133.584 146.513 132.679 147.288C132.359 147.572 132.815 148.048 133.143 147.79C136.8 144.625 140.55 141.58 144.389 138.653C146.313 137.189 148.256 135.755 150.218 134.351C151.882 133.162 153.622 131.833 155.651 131.34C157.78 130.824 159.657 131.7 161.516 132.654C163.683 133.774 165.848 134.888 168.012 135.999C172.287 138.209 176.577 140.36 180.81 142.643C188.6 146.799 195.92 151.78 202.646 157.499C209.228 163.12 215.187 169.431 220.423 176.323C221.104 177.218 221.767 178.122 222.421 179.038C223.077 179.89 223.685 180.778 224.242 181.699C224.49 182.086 224.621 182.537 224.619 182.997C224.615 183.457 224.479 183.907 224.226 184.29C223.735 184.979 223.126 185.577 222.428 186.055C218.592 188.93 214.678 191.698 210.822 194.547L207.904 196.684L208.449 196.849C206.847 190.843 204.972 184.742 201.602 179.464C200.015 176.907 198.001 174.641 195.645 172.766C193.121 170.873 190.256 169.482 187.205 168.67C183.96 167.807 180.663 167.143 177.337 166.68C173.778 166.125 170.204 165.7 166.615 165.406C160.201 164.888 153.501 164.928 147.606 162.086C142.061 159.409 137.656 154.774 134.425 149.6C134.021 148.955 133.63 148.294 133.256 147.625C133.215 147.547 133.146 147.49 133.062 147.465C132.978 147.439 132.887 147.448 132.81 147.489C132.732 147.531 132.674 147.601 132.649 147.685C132.623 147.769 132.633 147.858 132.674 147.936L132.632 147.943Z" fill="#002C42"/>
</g>
<path d="M171.048 54.2746C168.732 55.3673 166.647 56.8935 164.906 58.7712C164.12 59.4843 163.602 60.4457 163.441 61.4946C163.382 62.6363 164.058 63.6653 164.683 64.6189C166.321 67.1336 167.764 69.7697 169.001 72.5047C169.335 73.1441 169.552 73.8387 169.644 74.5549C169.654 75.4326 169.474 76.3022 169.116 77.103C167.807 80.4731 166.021 83.6369 163.812 86.4985C163.464 86.8542 163.244 87.3143 163.186 87.809C163.182 88.6094 163.983 89.1361 164.697 89.4963C168.486 91.3705 172.545 92.6439 176.725 93.2719L179.139 81.5135C179.856 81.0463 180.701 81.7691 181.536 81.9246C185.544 82.6408 188.271 80.9097 189.526 77.8338C190.78 74.757 190.238 71.2325 189.421 67.9998C190.94 67.5177 192.267 66.5659 193.21 65.2808C191.855 65.3849 190.501 65.0803 189.323 64.4051C188.144 63.7308 187.195 62.7181 186.599 61.4986C186.078 60.3944 185.874 59.1484 185.263 58.0879C184.062 56.0139 181.605 55.0842 179.335 54.31C177.784 53.6873 176.146 53.3085 174.479 53.1885C173.644 53.1342 172.808 53.2711 172.035 53.589C171.262 53.9069 170.571 54.3977 170.016 55.0236" fill="white"/>
<path d="M170.947 53.9621C169.314 54.7286 167.79 55.7097 166.416 56.8792C165.187 57.9229 163.7 59.2046 163.234 60.8041C162.706 62.6052 164.014 64.1909 164.909 65.6121C165.968 67.2959 166.942 69.0313 167.828 70.8124C168.313 71.7193 168.736 72.6594 169.094 73.624C169.388 74.5659 169.346 75.5815 168.973 76.4953C168.338 78.2609 167.554 79.9693 166.627 81.6001C165.702 83.2557 164.658 84.8406 163.501 86.3432C163.042 86.942 162.635 87.6322 162.947 88.403C163.29 89.0419 163.847 89.5374 164.522 89.8025C168.333 91.7046 172.42 92.9935 176.631 93.6209C176.717 93.6385 176.806 93.6218 176.878 93.5749C176.952 93.528 177.003 93.4542 177.022 93.3692L179.443 81.6103L179.301 81.816C179.483 81.7514 179.676 81.7263 179.868 81.7432C180.059 81.7613 180.245 81.8196 180.412 81.917C180.764 82.0758 181.132 82.1987 181.51 82.2831C182.232 82.4155 182.967 82.466 183.701 82.4326C184.977 82.3838 186.213 81.9795 187.272 81.2661C189.698 79.5908 190.582 76.5074 190.574 73.6959C190.523 71.7439 190.233 69.8065 189.709 67.9253L189.499 68.3398C191.071 67.8319 192.443 66.8467 193.427 65.5204C193.47 65.4721 193.497 65.4126 193.507 65.348C193.516 65.2844 193.506 65.2188 193.478 65.1602C193.45 65.1016 193.406 65.0528 193.351 65.0197C193.296 64.9855 193.232 64.9689 193.167 64.9723C192.253 65.0412 191.334 64.9161 190.472 64.6058C189.609 64.2955 188.823 63.806 188.163 63.1697C187.464 62.4893 186.932 61.657 186.606 60.7368C186.318 59.7295 185.931 58.7524 185.455 57.8201C184.436 56.3814 182.991 55.2996 181.322 54.7281C180.45 54.3703 179.554 54.0667 178.666 53.7689C177.63 53.4016 176.562 53.1361 175.475 52.9768C173.424 52.7208 171.151 53.1643 169.79 54.8429C169.523 55.1743 170.015 55.6181 170.283 55.2867C171.525 53.7535 173.617 53.3856 175.49 53.6449C176.589 53.8186 177.67 54.0984 178.716 54.4812C179.591 54.7728 180.459 55.0517 181.3 55.4312C182.978 56.1434 184.56 57.159 185.306 58.8933C185.72 59.857 185.933 60.8913 186.406 61.8328C186.78 62.5803 187.292 63.2514 187.912 63.8117C188.631 64.466 189.475 64.9665 190.394 65.2838C191.313 65.6011 192.286 65.7274 193.256 65.6556L192.988 65.0998C192.083 66.3409 190.809 67.2638 189.348 67.7389C189.266 67.7663 189.198 67.8259 189.159 67.9031C189.12 67.9812 189.112 68.0707 189.139 68.1534C189.83 70.4774 190.081 72.9106 189.878 75.3266C189.698 77.2747 188.802 79.086 187.366 80.414C186.652 80.9691 185.832 81.3716 184.957 81.5987C184.081 81.8259 183.168 81.8707 182.275 81.7333C181.752 81.6716 181.241 81.5401 180.753 81.3434C180.325 81.1205 179.84 81.0367 179.363 81.1048C178.756 81.2558 178.782 81.7441 178.671 82.2856L178.277 84.2189L176.42 93.2415L176.817 92.9894C173.201 92.4438 169.675 91.414 166.335 89.9257C165.553 89.6292 164.809 89.2417 164.118 88.7722C163.964 88.6771 163.833 88.5528 163.729 88.406C163.626 88.2592 163.553 88.0928 163.517 87.9165C163.541 87.4656 163.736 87.0418 164.064 86.7302C165.15 85.3154 166.14 83.8286 167.026 82.2811C167.894 80.7516 168.656 79.1645 169.304 77.5303C169.653 76.7651 169.883 75.9529 169.985 75.1184C170.011 74.2248 169.811 73.3381 169.4 72.5425C168.632 70.8173 167.776 69.1328 166.834 67.4969C166.374 66.6869 165.896 65.8918 165.385 65.1045C164.859 64.371 164.399 63.591 164.012 62.7751C163.828 62.3241 163.761 61.8349 163.817 61.3524C163.873 60.8698 164.049 60.4089 164.331 60.0116C164.884 59.2236 165.534 58.5076 166.264 57.8796C167.72 56.5385 169.369 55.4236 171.158 54.5729C171.539 54.3937 171.334 53.7635 170.952 53.9218L170.947 53.9621Z" fill="#002C42"/>
<path d="M163.17 84.9841C158.623 90.3705 151.269 92.7136 146.582 97.9751C144.633 100.155 143.228 102.782 141.834 105.33L130.375 126.561C129.553 127.948 128.9 129.429 128.429 130.97C127.663 133.882 128.233 136.936 128.068 139.982C127.935 142.405 127.328 144.779 126.284 146.97C130.392 145.43 134.919 147.602 139.264 147.844C144.892 148.157 150.156 145.209 155.719 144.295C160.608 143.499 165.624 144.292 170.03 146.556L170.234 142.502C177.483 146.274 185.042 149.42 192.827 151.905C191.795 148.075 191.968 144.021 193.323 140.293L197.865 143.88C198.197 144.194 198.616 144.402 199.067 144.478C199.483 144.47 199.887 144.344 200.232 144.112C202.595 142.814 204.687 141.076 206.396 138.993C201.717 138.101 196.822 137.112 193.137 134.084C190.115 131.596 188.246 128.008 186.715 124.41C185.073 120.542 183.731 116.552 182.702 112.479C181.04 106.009 180.211 99.2959 177.716 93.088C177.357 92.1805 178.64 90.0294 177.741 89.666C176.404 89.3986 175.046 89.2485 173.682 89.2168C169.371 89.2705 167.708 86.0701 164.307 83.4295L163.17 84.9841Z" fill="#7EBEE0"/>
<path d="M150.595 94.1187C150.043 91.8104 148.776 89.7349 146.976 88.188C145.52 86.8924 143.646 86.1635 141.698 86.1334C139.75 86.1033 137.854 86.7745 136.36 88.0244C134.864 89.2744 133.869 91.0198 133.553 92.943C133.238 94.8661 133.623 96.8387 134.641 98.5017C135.047 99.0082 135.309 99.6173 135.396 100.262C135.362 100.741 135.205 101.205 134.942 101.608C132.473 106.131 129.208 110.17 125.304 113.534C124.839 114.001 124.263 114.343 123.63 114.528C122.74 114.714 121.853 114.297 120.96 114.059C116.503 112.831 111.818 116.378 110.321 120.77C108.824 125.162 109.904 129.988 111.527 134.316C111.901 135.576 112.589 136.719 113.527 137.639C114.69 138.617 116.278 138.871 117.788 139.017C120.039 139.237 122.305 139.283 124.564 139.159C125.588 139.207 126.599 138.899 127.423 138.287C128.502 137.291 128.406 135.589 128.589 134.144C128.859 131.986 129.908 130.019 130.92 128.107C136.719 117.309 142.529 106.491 149.545 96.4428C150.127 95.7685 150.484 94.9286 150.565 94.0412" fill="#0082C3"/>
<path d="M150.311 91.3481C153.49 88.9054 157.344 87.5028 161.349 87.33C164.628 87.1451 167.886 87.9737 170.677 89.705C175.58 92.8688 177.884 98.9555 177.976 104.76C178.069 110.564 176.295 116.221 174.52 121.746C173.073 118.765 172.431 115.456 172.661 112.15C172.881 109.035 173.878 105.972 173.714 102.831C173.531 100.671 172.998 98.5527 172.134 96.5632C171.336 94.5672 170.364 92.5743 168.748 91.157C167.425 90.0146 165.822 89.2405 164.105 88.9169C162.387 88.5934 160.614 88.7304 158.965 89.3135C154.277 91.1403 153.081 92.8172 150.181 94.6635C149.553 93.677 149.296 91.6657 150.401 91.2704" fill="#002C42"/>
<path d="M175.912 111.841C176.168 111.248 176.388 110.639 176.571 110.02C176.726 109.395 176.821 108.756 176.855 108.112C176.851 108.025 176.811 107.943 176.746 107.885C176.681 107.826 176.595 107.796 176.507 107.8C176.42 107.805 176.338 107.844 176.28 107.909C176.221 107.974 176.19 108.06 176.195 108.147C176.16 108.733 176.07 109.313 175.928 109.881C175.771 110.442 175.578 110.994 175.353 111.533C175.313 111.611 175.305 111.702 175.331 111.786C175.359 111.871 175.418 111.941 175.496 111.982C175.575 112.022 175.666 112.03 175.75 112.003C175.834 111.976 175.905 111.917 175.945 111.839L175.912 111.841Z" fill="white"/>
<path d="M163.665 63.6069C163.526 63.9166 163.305 64.1845 163.025 64.3784C162.746 64.5733 162.42 64.6875 162.08 64.7093C159.068 61.1291 156.862 56.2759 158.316 51.8327C159.576 48.351 162.105 45.4737 165.397 43.7791C167.689 42.5604 173.105 42.2436 175.549 43.0487C179.706 44.4581 182.087 46.974 183.032 51.2573L186.371 50.9782C186.613 52.4406 184.666 53.1384 183.189 53.355C175.439 54.5342 168.299 58.25 162.886 63.9201" fill="#0082C3"/>
<path d="M179.873 52.2039C181.909 53.0315 184.101 53.4033 186.295 53.2913C187.988 53.2757 189.635 52.7377 191.012 51.7523C190.899 52.0036 191.166 52.3 191.445 52.3184C191.726 52.3087 191.996 52.2084 192.217 52.0336L193.998 50.9009C193.11 52.6547 193.135 54.7713 192.179 56.4817C191.271 57.9853 189.833 59.0961 188.147 59.592C186.476 60.0661 184.734 60.2445 183.001 60.12C182.021 60.1133 181.045 59.9762 180.101 59.7153C177.592 58.9395 175.793 56.7917 174.144 54.7352C174.077 54.6726 174.025 54.5963 173.992 54.5108C173.959 54.4255 173.944 54.3321 173.952 54.2416C173.99 54.1585 174.047 54.0854 174.118 54.0266C174.188 53.9679 174.27 53.9255 174.358 53.9019C176.16 53.1636 178.029 52.607 179.94 52.2404" fill="#002C42"/>
<path d="M175.514 53.7494C176.211 60.2168 180.806 61.6763 175.237 66.249C174.602 66.766 172.879 64.6793 172.13 65.6779C167.738 63.8101 167.82 70.3038 171.999 68.6087C172.426 69.4736 172.641 70.4286 172.628 71.3926C172.614 72.3577 172.371 73.3057 171.919 74.1575C165.885 88.2957 161.766 69.7939 161.282 63.7119C161.894 58.4797 170.856 53.1073 175.689 53.9325" fill="#002C42"/>
<path d="M118.676 113.404C116.899 113.219 114.94 113.07 113.492 114.112C112.875 114.619 112.353 115.232 111.947 115.921C110.142 118.432 108.864 121.283 108.191 124.301C107.582 127.33 107.98 130.618 109.741 133.172C109.996 133.595 110.365 133.939 110.805 134.163C111.024 134.264 111.269 134.291 111.505 134.241C111.741 134.193 111.954 134.069 112.115 133.889C112.272 133.609 112.352 133.292 112.344 132.971C112.805 126.465 115.631 120.352 120.29 115.788C120.825 115.271 121.417 114.458 120.945 113.881C120.785 113.712 120.585 113.587 120.363 113.52C119.535 113.207 118.656 113.053 117.772 113.067" fill="#002C42"/>
<path d="M156.507 96.5747C152.368 104.784 150.356 113.9 150.658 123.089C150.624 124.918 150.885 126.741 151.431 128.487C152.131 130.085 153.199 131.495 154.545 132.605C158.824 136.577 163.736 139.809 169.079 142.165C169.465 142.336 169.771 141.751 169.379 141.58C166.158 140.16 163.089 138.417 160.221 136.377C158.814 135.378 157.459 134.307 156.161 133.169C154.785 132.097 153.58 130.822 152.589 129.386C151.626 127.796 151.467 125.905 151.366 124.09C151.264 122.276 151.264 120.517 151.349 118.726C151.512 115.181 152.026 111.661 152.882 108.217C153.859 104.294 155.271 100.492 157.091 96.8815C157.121 96.8049 157.122 96.7207 157.093 96.6441C157.064 96.5675 157.008 96.5044 156.935 96.4672C156.863 96.4299 156.778 96.4213 156.699 96.4425C156.62 96.4636 156.551 96.5123 156.507 96.5817L156.507 96.5747Z" fill="white"/>
<path d="M173.453 118.585C174.317 122.132 175.935 125.452 178.198 128.315C180.573 131.334 183.662 133.719 186.806 135.882C188.666 137.162 190.58 138.332 192.497 139.555C192.852 139.781 193.139 139.197 192.797 138.971C189.42 136.958 186.18 134.725 183.098 132.286C180.275 130.026 177.933 127.224 176.208 124.046C175.267 122.25 174.554 120.346 174.084 118.375C173.984 117.964 173.36 118.174 173.434 118.586L173.453 118.585Z" fill="#002C42"/>
<path d="M140.74 93.6422C140.637 93.5054 140.565 93.347 140.529 93.1796C140.493 93.0113 140.494 92.839 140.532 92.6717C140.571 92.5045 140.646 92.3464 140.751 92.2117C140.857 92.0759 140.99 91.9668 141.143 91.8887C141.437 91.7181 141.774 91.6333 142.114 91.6436C142.453 91.6538 142.782 91.7578 143.065 91.9452C144.436 92.8527 144.232 94.744 143.379 95.9002C142.918 96.5282 142.308 97.0318 141.604 97.3661C140.899 97.6994 140.121 97.8534 139.343 97.812C138.548 97.7365 137.786 97.457 137.131 96.9997C136.476 96.5423 135.951 95.9229 135.607 95.202C134.731 93.6337 134.009 91.4805 135.33 89.9232C135.611 89.6041 135.118 89.1593 134.844 89.4781C133.415 91.1351 133.924 93.3916 134.836 95.1502C135.268 96.125 135.941 96.9729 136.792 97.6153C137.583 98.1736 138.519 98.4921 139.487 98.5325C140.48 98.5495 141.459 98.287 142.31 97.7747C143.16 97.2615 143.849 96.5204 144.298 95.6337C145.063 94.0656 144.705 91.7872 142.884 91.1286C142.457 90.9727 141.995 90.9398 141.55 91.0322C141.105 91.1246 140.694 91.3385 140.364 91.6512C140.029 91.9731 139.832 92.411 139.815 92.8756C139.799 93.34 139.963 93.7931 140.275 94.1372C140.569 94.4392 141.013 93.9453 140.72 93.6433L140.74 93.6422Z" fill="#002C42"/>
<path d="M112.848 115.953C114.212 116.951 115.719 117.737 117.317 118.286C117.403 118.304 117.491 118.287 117.565 118.24C117.638 118.193 117.689 118.118 117.708 118.033C117.726 117.949 117.71 117.861 117.665 117.788C117.619 117.715 117.547 117.663 117.463 117.643C115.973 117.126 114.567 116.389 113.293 115.46C113.226 115.403 113.14 115.375 113.053 115.379C112.966 115.384 112.884 115.421 112.823 115.484C112.766 115.55 112.736 115.636 112.741 115.723C112.745 115.811 112.784 115.893 112.848 115.953Z" fill="white"/>
<path d="M166.975 47.4676C166.065 49.1866 165.344 50.9989 164.823 52.8737C164.705 53.2834 165.354 53.4216 165.492 53.0108C166.005 51.1995 166.71 49.4482 167.593 47.7857C167.792 47.4118 167.201 47.1123 167.002 47.4872L166.975 47.4676Z" fill="white"/>
<path d="M168.626 48.56L167.451 51.4074C167.416 51.4864 167.41 51.5758 167.437 51.6595C167.463 51.7423 167.519 51.8125 167.594 51.8566C167.673 51.8955 167.764 51.9028 167.848 51.8763C167.932 51.8499 168.002 51.7911 168.043 51.7139L169.218 48.8595C169.243 48.8211 169.259 48.7772 169.267 48.7317C169.274 48.6863 169.271 48.6394 169.26 48.5949C169.247 48.5505 169.226 48.5086 169.197 48.473C169.168 48.4365 169.132 48.4074 169.092 48.3854C169.05 48.3646 169.005 48.3529 168.959 48.3504C168.912 48.3478 168.867 48.3542 168.823 48.3705C168.78 48.3877 168.741 48.4129 168.708 48.4446C168.675 48.4774 168.649 48.5168 168.632 48.5597L168.626 48.56Z" fill="white"/>
<path d="M174.068 62.0029C175.041 65.5449 176.009 69.1131 176.137 72.8055L176.535 72.4662L171.416 71.4778C170.995 71.3937 170.856 72.0428 171.272 72.1472L176.398 73.1353C176.448 73.1457 176.499 73.145 176.548 73.1324C176.598 73.1208 176.643 73.0974 176.682 73.0643C176.72 73.0313 176.75 72.9907 176.771 72.9445C176.79 72.8974 176.8 72.8479 176.798 72.7969C176.668 69.0526 175.683 65.4121 174.701 61.8176C174.586 61.407 173.962 61.618 174.05 62.03L174.068 62.0029Z" fill="#002C42"/>
<path d="M175.843 72.662C177.296 76.2649 178.877 80.0594 182.3 82.2482C182.656 82.4809 182.944 81.897 182.608 81.6633C179.387 79.563 177.87 75.8573 176.487 72.443C176.328 72.0478 175.702 72.2529 175.836 72.6494L175.843 72.662Z" fill="#002C42"/>
<path d="M189.782 71.8522C188.861 72.0847 187.892 72.0383 186.996 71.7208C186.256 71.4612 185.133 70.8911 185.106 69.9863C185.084 69.5639 184.424 69.5985 184.446 70.0209C184.506 71.1693 185.665 71.9417 186.622 72.2821C187.696 72.6955 188.873 72.766 189.987 72.4833C190.399 72.3756 190.194 71.7514 189.781 71.8322L189.782 71.8522Z" fill="#002C42"/>
<path d="M170.283 67.541C170.534 67.4558 170.798 67.4129 171.063 67.414L171.294 67.4019L171.34 67.3995L171.433 67.3947C171.489 67.3977 171.546 67.4088 171.6 67.426L171.673 67.4222L171.712 67.4201L171.854 67.4847C171.854 67.4847 171.923 67.5472 171.894 67.4826C171.891 67.4167 171.93 67.5408 171.894 67.4826C171.896 67.5226 171.896 67.5226 171.894 67.4826L171.857 67.5447L171.811 67.5471C171.85 67.545 171.864 67.5443 171.811 67.5471L171.85 67.545C171.784 67.5485 171.917 67.5415 171.85 67.545L171.89 67.5429L171.984 67.6832L171.98 67.6043C171.977 67.5514 171.983 67.6633 171.98 67.6043C171.975 67.5254 171.976 67.5444 171.98 67.6043L171.978 67.5714L172.049 67.5276C172.121 67.4788 172.172 67.403 172.19 67.3169C172.207 67.2299 172.191 67.1407 172.144 67.066C172.092 66.9956 172.016 66.9475 171.931 66.9299C171.845 66.9124 171.757 66.9271 171.682 66.971C171.527 67.0693 171.408 67.2157 171.345 67.3872C171.282 67.5598 171.279 67.7482 171.334 67.9225C171.378 68.0214 171.451 68.1047 171.544 68.1589C171.638 68.214 171.745 68.2375 171.853 68.2258C171.941 68.2182 172.025 68.1917 172.103 68.1506C172.18 68.1095 172.248 68.0529 172.304 67.9839C172.424 67.8484 172.49 67.6727 172.489 67.4915C172.481 67.2987 172.402 67.1166 172.264 66.9806C172.017 66.7562 171.699 66.6247 171.365 66.6112C170.897 66.5676 170.426 66.6163 169.976 66.757C169.894 66.7844 169.826 66.843 169.787 66.9202C169.747 66.9984 169.74 67.0878 169.767 67.1705C169.797 67.2531 169.858 67.32 169.936 67.359C170.014 67.3979 170.105 67.4062 170.188 67.3808L170.283 67.541Z" fill="#002C42"/>
</g>
</g>
<defs>
<clipPath id="clip0_243_247">
<rect width="357" height="326" fill="white"/>
</clipPath>
</defs>
</svg>
